<svg width="686" height="200" viewBox="0 0 686 200" fill="none" xmlns="http://www.w3.org/2000/svg">
<g clip-path="url(#clip0_1_216)">
<path d="M405.078 -3.27312C357.372 -17.2393 302.449 -13.1508 250.279 12.3027L181.387 45.9149L303.654 296.515L381.621 258.475C413.545 242.899 427.193 211.374 425.476 180.676C424.192 157.005 414.044 133.4 395.485 118.214C358.786 88.2326 311.918 105.791 274.42 124.086L247.595 69.1058C309.554 38.8762 376.276 23.5526 434.429 70.9696C466 96.7533 484.471 136.423 486.74 176.843C489.681 230.448 465.348 285.778 408.48 313.524L275.233 378.535L99.2494 17.8362L223.421 -42.7467C289.756 -75.1115 360.388 -79.9666 422.462 -61.7416C560.09 -21.3939 631.05 123.58 583.499 257.568C558.925 326.84 506.159 382.049 440.354 414.155L221.77 520.801L48.739 166.156L104.18 139.106C152.885 238.934 201.452 338.828 250.258 438.862L413.54 359.197C465.387 333.901 506.34 292.12 525.777 237.333C561.574 136.415 508.797 27.2485 405.078 -3.27312Z" fill="#F7EED0"/>
</g>
<defs>
<clipPath id="clip0_1_216">
<rect width="516" height="505.782" fill="white" transform="translate(0 66.2617) rotate(-26.0076)"/>
</clipPath>
</defs>
</svg>
