<svg width="96" height="37" viewBox="0 0 96 37" fill="none" xmlns="http://www.w3.org/2000/svg">
<path d="M9.43697 29.5356C12.0778 29.5356 14.3639 28.4298 15.704 26.5737V29.1407H19.2908V0.943359H15.704V12.9884C14.3245 11.1323 12.0778 9.98703 9.39755 9.98703C4.27356 9.98703 0.332031 14.2522 0.332031 19.7811C0.332031 25.2705 4.27356 29.5356 9.43697 29.5356ZM10.0282 26.1788C6.48082 26.1788 3.99766 23.5328 3.99766 19.7416C3.99766 15.9898 6.48082 13.3439 9.98878 13.3439C13.5362 13.3439 15.9405 15.9898 15.9405 19.7811C15.9405 23.5328 13.5362 26.1788 10.0282 26.1788Z" fill="#013D29"/>
<path d="M31.9443 29.5356C34.9005 29.5356 37.5807 28.3903 39.3938 26.2972L37.1078 23.9672C35.8859 25.4679 34.0334 26.1788 31.9443 26.1788C28.594 26.1788 26.2291 24.2042 25.6773 21.0843H40.3398C40.4975 20.3339 40.5369 19.7416 40.5369 19.1887C40.5369 13.8573 36.8318 9.98703 31.7079 9.98703C26.2685 9.98703 22.0511 14.2522 22.0511 19.7416C22.0511 25.3494 26.308 29.5356 31.9443 29.5356ZM31.629 13.2649C34.7034 13.2649 36.6742 15.0815 37.0683 18.1224H25.6773C26.2291 15.1605 28.4758 13.2649 31.629 13.2649Z" fill="#013D29"/>
<path d="M51.8937 29.5356C54.8499 29.5356 57.5301 28.3903 59.3432 26.2972L57.0571 23.9672C55.8353 25.4679 53.9827 26.1788 51.8937 26.1788C48.5434 26.1788 46.1785 24.2042 45.6267 21.0843H60.2892C60.4469 20.3339 60.4863 19.7416 60.4863 19.1887C60.4863 13.8573 56.7812 9.98703 51.6572 9.98703C46.2179 9.98703 42.0005 14.2522 42.0005 19.7416C42.0005 25.3494 46.2573 29.5356 51.8937 29.5356ZM51.5784 13.2649C54.6528 13.2649 56.6236 15.0815 57.0177 18.1224H45.6267C46.1785 15.1605 48.4252 13.2649 51.5784 13.2649Z" fill="#013D29"/>
<path d="M63.1717 29.1407H66.7191V0.943359H63.1717V29.1407Z" fill="#013D29"/>
<path d="M70.7269 29.1407H74.2742V0.943359H70.7269V29.1407Z" fill="#013D29"/>
<path d="M79.0703 36.9996H83.0118L86.5592 29.2986L95.3094 10.382H91.3679L85.6526 23.6908L80.2527 10.382H76.3112L83.6819 27.5215L79.0703 36.9996Z" fill="#013D29"/>
</svg>
