<svg width="107" height="35" viewBox="0 0 107 35" fill="none" xmlns="http://www.w3.org/2000/svg">
<g clip-path="url(#clip0_2026_85)">
<rect width="106.4" height="34.3225" transform="translate(0 0.338867)" fill="white"/>
<path d="M39.3438 28.8392C41.4038 28.8392 43.1871 27.9766 44.2325 26.5287V28.5311H47.0304V6.53564H44.2325V15.9315C43.1564 14.4836 41.4038 13.5902 39.3131 13.5902C35.3161 13.5902 32.2415 16.9173 32.2415 21.2301C32.2415 25.5121 35.3161 28.8392 39.3438 28.8392ZM39.805 26.2207C37.0379 26.2207 35.1009 24.1567 35.1009 21.1993C35.1009 18.2727 37.0379 16.2087 39.7743 16.2087C42.5415 16.2087 44.417 18.2727 44.417 21.2301C44.417 24.1567 42.5415 26.2207 39.805 26.2207Z" fill="#013D29"/>
<path d="M56.9009 28.8392C59.2069 28.8392 61.2976 27.9458 62.712 26.3131L60.9287 24.4956C59.9755 25.6662 58.5305 26.2207 56.9009 26.2207C54.2875 26.2207 52.4427 24.6804 52.0123 22.2467H63.4499C63.5729 21.6614 63.6036 21.1993 63.6036 20.768C63.6036 16.6092 60.7135 13.5902 56.7164 13.5902C52.4735 13.5902 49.1836 16.9173 49.1836 21.1993C49.1836 25.5738 52.5042 28.8392 56.9009 28.8392ZM56.6549 16.1471C59.0532 16.1471 60.5905 17.5642 60.8979 19.9363H52.0123C52.4427 17.6258 54.1952 16.1471 56.6549 16.1471Z" fill="#013D29"/>
<path d="M72.4626 28.8392C74.7686 28.8392 76.8593 27.9458 78.2737 26.3131L76.4904 24.4956C75.5372 25.6662 74.0922 26.2207 72.4626 26.2207C69.8492 26.2207 68.0044 24.6804 67.574 22.2467H79.0116C79.1345 21.6614 79.1653 21.1993 79.1653 20.768C79.1653 16.6092 76.2751 13.5902 72.2781 13.5902C68.0351 13.5902 64.7453 16.9173 64.7453 21.1993C64.7453 25.5738 68.0659 28.8392 72.4626 28.8392ZM72.2166 16.1471C74.6148 16.1471 76.1522 17.5642 76.4596 19.9363H67.574C68.0044 17.6258 69.7569 16.1471 72.2166 16.1471Z" fill="#013D29"/>
<path d="M81.2601 28.5311H84.0273V6.53564H81.2601V28.5311Z" fill="#013D29"/>
<path d="M87.1536 28.5311H89.9207V6.53564H87.1536V28.5311Z" fill="#013D29"/>
<path d="M93.6619 34.6615H96.7365L99.5037 28.6544L106.329 13.8983H103.255L98.7965 24.2799L94.5843 13.8983H91.5097L97.2592 27.2681L93.6619 34.6615Z" fill="#013D29"/>
<g clip-path="url(#clip1_2026_85)">
<path d="M21.9772 6.75169C19.9301 4.88731 17.0807 3.75049 13.8473 3.75049H9.57747V19.2823H14.4097C16.3883 19.2823 17.8416 18.0374 18.5054 16.4587C19.0193 15.2423 19.0878 13.8127 18.5297 12.5992C17.4247 10.2019 14.6496 9.9362 12.3255 9.9362V6.52859C16.1656 6.52859 19.8801 7.39115 21.6332 11.1853C22.5839 13.2472 22.5397 15.6842 21.666 17.7632C20.504 20.5185 17.9344 22.6941 14.4097 22.6941H6.15134V0.338623H13.8473C17.9586 0.338623 21.6132 1.82075 24.2756 4.24927C30.18 9.63068 30.1914 18.6215 24.5383 24.1677C21.616 27.0353 17.626 28.5104 13.5475 28.5104H0V6.53001H3.43613C3.43613 12.7171 3.42756 18.9043 3.42756 25.1042H13.5475C16.7609 25.1042 19.8316 24.0128 22.1428 21.7449C26.3998 17.5671 26.4241 10.813 21.9772 6.75169Z" fill="#219653"/>
</g>
</g>
<defs>
<clipPath id="clip0_2026_85">
<rect width="106.4" height="34.3225" fill="white" transform="translate(0 0.338867)"/>
</clipPath>
<clipPath id="clip1_2026_85">
<rect width="28.7424" height="28.1732" fill="white" transform="translate(0 0.338867)"/>
</clipPath>
</defs>
</svg>
