<svg width="30" height="30" viewBox="0 0 30 30" fill="none" xmlns="http://www.w3.org/2000/svg">
<path fill-rule="evenodd" clip-rule="evenodd" d="M8.61384 12.7053L8.61386 12.7053C8.85327 12.1646 9.08586 11.6394 9.31272 11.1108C9.57141 10.5068 9.42529 9.97698 8.95444 9.75318C8.46844 9.52253 8.02141 9.7372 7.74323 10.3572C7.32612 11.2911 6.91343 12.2274 6.50081 13.1634L6.50072 13.1637L6.5005 13.1641C6.3361 13.5371 6.17171 13.9101 6.00706 14.2828C5.6412 15.1129 5.67259 15.9328 6.0352 16.7606C6.10772 16.925 6.14452 17.1728 6.08066 17.3269C5.77364 18.0639 5.44802 18.7921 5.11899 19.5279L5.11898 19.5279C5.00606 19.7804 4.89273 20.0338 4.77961 20.2888C3.29563 17.6615 3.09322 12.1145 6.361 8.0313C10.0888 3.37378 16.4339 2.37468 21.2094 5.73394C26.1484 9.20739 27.3477 15.6028 25.289 20.3642C25.2468 20.278 25.2074 20.1993 25.1703 20.1254L25.1702 20.1253C25.1008 19.9868 25.0395 19.8647 24.9838 19.7396C23.7119 16.8645 22.4401 13.9882 21.1715 11.1108C20.9929 10.7055 20.8176 10.3093 20.3208 10.2613C19.8001 10.2111 19.5382 10.5707 19.3055 10.9704C17.053 14.84 17.0173 18.8273 18.747 22.9036C18.9407 23.3592 19.2925 23.5396 19.7579 23.4814C19.8347 23.4719 19.9114 23.4623 19.9881 23.4526C20.1798 23.4285 20.3715 23.4044 20.5632 23.3832C21.4313 23.288 22.0137 23.6869 22.3102 24.5798C18.4103 28.3993 11.8055 28.5534 7.67071 24.5604C7.82518 24.2107 7.97965 23.8604 8.13428 23.5097L8.13473 23.5087C8.76553 22.0782 9.39908 20.6415 10.0466 19.2121C10.1072 19.0785 10.3107 18.9814 10.4666 18.9369C11.3011 18.7006 11.9159 18.1924 12.2828 17.3646L12.5573 16.7459C13.046 15.6441 13.5345 14.543 14.0168 13.4379C14.2864 12.8201 14.1467 12.3166 13.664 12.0745C13.1888 11.8359 12.7288 12.0517 12.4506 12.6637C12.2196 13.1712 11.9949 13.6819 11.763 14.209L11.763 14.2091C11.6516 14.4623 11.5386 14.7193 11.4223 14.9816C11.1539 14.8526 10.919 14.7396 10.6397 14.6048C10.7634 14.3242 10.885 14.0496 11.005 13.7787C11.2188 13.2957 11.4274 12.8246 11.6334 12.352C11.9213 11.6886 11.8087 11.1793 11.3282 10.9258C10.8281 10.6621 10.3681 10.9007 10.0563 11.5938C9.81952 12.1228 9.58563 12.653 9.33923 13.2115L9.3392 13.2116L9.06593 13.8307C8.93994 13.7661 8.81916 13.704 8.6996 13.6425C8.56339 13.5725 8.42877 13.5033 8.28985 13.4322L8.29309 13.431C8.4014 13.185 8.50828 12.9437 8.61384 12.7053ZM14.9737 6.50239C13.8069 6.52751 12.6628 6.75017 11.576 7.256C10.9536 7.54602 10.7253 8.02673 10.9493 8.55312C11.1604 9.04753 11.6453 9.19939 12.2374 8.9402C14.3134 8.03359 16.344 8.13521 18.3346 9.22908C18.9234 9.55222 19.4289 9.42548 19.6735 8.90708C19.9051 8.4161 19.7135 7.94452 19.1366 7.61111C17.8453 6.86664 16.4555 6.52637 14.9748 6.50011L14.9737 6.50239ZM15.5911 24.7398L15.5914 24.7398L15.5915 24.7397C16.1018 24.6644 16.6122 24.589 17.1158 24.4794C17.7836 24.3343 18.0705 23.8902 17.946 23.325C17.8237 22.7735 17.3755 22.5428 16.7034 22.7164C15.0278 23.148 13.4226 22.9584 11.878 22.1512C11.2665 21.8315 10.7707 21.9456 10.5304 22.4423C10.2739 22.9744 10.485 23.4563 11.1344 23.8C12.3272 24.4314 13.5947 24.7443 14.9391 24.8379L14.938 24.839C15.1553 24.8042 15.3732 24.772 15.5911 24.7398ZM20.751 12.5L22.2942 16.2141C23.2544 18.5225 24.2141 20.8315 25.1737 23.1403L25.1756 23.1447L26.0902 25.3454C26.107 25.3859 26.1269 25.4269 26.147 25.4681L26.147 25.4682C26.2012 25.5794 26.2559 25.692 26.2495 25.7998C26.2406 25.9532 26.1482 26.1539 26.0372 26.23C25.9546 26.2863 25.7531 26.2146 25.6578 26.1275C25.5738 26.05 25.5243 25.922 25.4763 25.7978C25.4641 25.7663 25.4521 25.7351 25.4395 25.705C25.1245 24.9482 24.8101 24.1911 24.4958 23.434C24.1816 22.6771 23.8673 21.9202 23.5523 21.1636C23.2388 20.4113 23.0245 20.2778 22.2804 20.3738C22.1391 20.3918 21.998 20.4142 21.8569 20.4365L21.8568 20.4365C21.5927 20.4783 21.3288 20.5201 21.0635 20.5337C20.923 20.5415 20.6871 20.4345 20.6468 20.3153C19.7769 17.7562 19.7582 15.2014 20.751 12.5011V12.5ZM11.25 16.3349C10.1259 15.8805 9.04154 15.4408 7.95719 15.001L7.95598 15L7.76682 15.1144C7.80089 15.1909 7.82818 15.2728 7.85545 15.3546C7.91499 15.5332 7.97445 15.7116 8.10418 15.8333C8.56202 16.2625 8.5572 16.6833 8.29093 17.1776C7.25926 19.0903 6.23494 21.0062 5.21051 22.9223C4.9225 23.461 4.63449 23.9997 4.3463 24.5384C4.29112 24.6413 4.2332 24.7436 4.17526 24.8458C4.01942 25.121 3.86352 25.3962 3.76075 25.6854C3.72274 25.7927 3.79242 25.929 3.86211 26.0654C3.89402 26.1279 3.92593 26.1903 3.9475 26.25C4.0065 26.2264 4.06866 26.2056 4.1308 26.1849C4.27549 26.1367 4.4201 26.0885 4.52462 26.0034C4.62126 25.9244 4.67419 25.8042 4.72694 25.6844C4.7485 25.6354 4.77003 25.5866 4.7945 25.5406C5.12441 24.9238 5.45464 24.3071 5.78487 23.6905C6.87892 21.6476 7.9729 19.6048 9.05479 17.5564C9.33672 17.0223 9.71384 16.699 10.4331 16.761C10.7873 16.7914 11.0886 16.6906 11.25 16.3349Z" fill="#E9FBF2"/>
<path d="M5.402 25.6377C5.12483 26.2257 4.87646 26.7656 4.61609 27.2996C3.96936 28.6278 2.61952 29.1485 1.37406 28.557C0.140597 27.9715 -0.310552 26.5892 0.304978 25.2466C0.787324 24.1943 1.30207 23.1552 1.75801 22.0921C1.8576 21.8594 1.8708 21.4922 1.75441 21.2774C-2.87706 12.6948 2.10477 2.33397 11.4985 0.303798C19.2328 -1.36761 27.2707 4.04857 28.5594 11.8597C29.1065 15.1737 28.6038 18.2946 27.044 21.2642C26.9288 21.4826 26.9288 21.8474 27.0284 22.0777C27.4927 23.16 28.0206 24.2135 28.5078 25.2862C29.1125 26.6156 28.6278 28.0123 27.3835 28.5762C26.1465 29.1365 24.8182 28.6158 24.1871 27.3175C23.9267 26.7824 23.6771 26.2413 23.3916 25.6377C20.7123 27.7195 17.7222 28.7982 14.377 28.7934C11.0498 28.7886 8.0753 27.7159 5.4032 25.6377H5.402ZM6.95583 12.0949C7.245 12.2353 7.51736 12.3684 7.81613 12.5136C8.20489 11.6797 8.55645 10.9202 8.91401 10.1631C9.25837 9.43477 9.76951 9.184 10.3238 9.46116C10.8566 9.72753 10.9814 10.2639 10.6622 10.9598C10.307 11.7349 9.94349 12.5064 9.56073 13.3271C9.8703 13.4687 10.1307 13.5875 10.4282 13.7231C10.8254 12.8736 11.1901 12.0769 11.5681 11.2874C11.8765 10.6442 12.3864 10.4175 12.9132 10.6682C13.4483 10.9226 13.6031 11.4517 13.3043 12.1009C12.6708 13.4795 12.0253 14.8534 11.3821 16.2272C10.9742 17.0983 10.2938 17.631 9.36875 17.8794C9.19717 17.925 8.9704 18.0282 8.90321 18.1686C8.00931 20.0392 7.13941 21.9218 6.26951 23.7887C10.853 27.9847 18.1758 27.8239 22.4977 23.8091C22.1681 22.8716 21.5226 22.4525 20.5611 22.5517C20.2635 22.5829 19.966 22.6189 19.6684 22.6549C19.1512 22.7161 18.7625 22.5265 18.5477 22.0477C16.6291 17.7642 16.6699 13.5743 19.1668 9.50796C19.4248 9.08681 19.7152 8.70885 20.2923 8.76284C20.8431 8.81324 21.0374 9.22959 21.2354 9.65554C22.6417 12.6792 24.0503 15.7017 25.4613 18.7229C25.5549 18.9245 25.6641 19.1189 25.7997 19.3792C28.0818 14.377 26.7524 7.65537 21.2774 4.00538C15.98 0.476579 8.9464 1.52646 4.81407 6.42191C1.19168 10.7126 1.41485 16.5416 3.06107 19.3025C3.55181 18.255 4.04616 17.2303 4.5033 16.19C4.5753 16.028 4.5333 15.7677 4.45291 15.5949C4.05096 14.7262 4.01616 13.8635 4.42171 12.9912C5.06124 11.6149 5.69837 10.2375 6.3463 8.86603C6.65346 8.21331 7.15021 7.98893 7.68894 8.2313C8.21089 8.46648 8.37287 9.02321 8.0861 9.65794C7.72374 10.4583 7.34818 11.2514 6.95583 12.0961V12.0949ZM20.0919 11.8465C18.8801 14.7826 18.9029 17.5627 19.9648 20.3463C20.014 20.4759 20.3031 20.5923 20.4735 20.5839C20.9702 20.5611 21.4634 20.4663 21.9589 20.4099C22.8672 20.3067 23.1288 20.4507 23.5116 21.269C24.2807 22.9152 25.0462 24.5627 25.8153 26.2089C25.8909 26.3709 25.9533 26.5628 26.0817 26.6684C26.1981 26.7644 26.444 26.8412 26.5448 26.78C26.6816 26.6972 26.7944 26.4788 26.804 26.3121C26.8136 26.1525 26.6852 25.9809 26.6096 25.8177C25.0654 22.5061 23.52 19.1957 21.9757 15.8852C21.3698 14.5858 20.7639 13.2863 20.0919 11.8453V11.8465ZM6.23351 13.9415C6.17112 13.9847 6.10752 14.029 6.04513 14.0722C6.15312 14.3506 6.19271 14.6914 6.38109 14.8942C6.83704 15.3849 6.83224 15.866 6.56707 16.4312C5.25082 19.2329 3.94657 22.0417 2.63871 24.847C2.43594 25.2814 2.19596 25.7049 2.05558 26.1585C2.00039 26.3373 2.17197 26.5868 2.24156 26.804C2.43714 26.714 2.66751 26.6612 2.81629 26.522C2.95188 26.3949 3.00107 26.1741 3.08506 25.9929C4.5021 22.9512 5.92514 19.912 7.32779 16.8643C7.60855 16.2536 7.98411 15.884 8.70043 15.9548C9.05319 15.9896 9.35316 15.8744 9.51394 15.4677C8.39446 14.9469 7.31459 14.4442 6.23471 13.9427L6.23351 13.9415Z" fill="#219653"/>
<path d="M14.3607 4.81445C16.0034 4.84205 17.5428 5.19841 18.9742 5.98192C19.6138 6.33228 19.8261 6.82783 19.5694 7.34377C19.2994 7.88731 18.7379 8.02169 18.0851 7.68213C15.8786 6.53266 13.6276 6.42587 11.3263 7.37856C10.67 7.65093 10.1324 7.49135 9.89845 6.97181C9.64888 6.41867 9.90325 5.91353 10.5932 5.60876C11.7978 5.07602 13.0661 4.84325 14.3595 4.81685L14.3607 4.81445Z" fill="#219653"/>
<path d="M14.3219 24.0821C12.8328 23.9825 11.4278 23.6537 10.1043 22.9914C9.38322 22.6302 9.14924 22.1239 9.43481 21.5647C9.70118 21.0428 10.2507 20.9228 10.9286 21.2588C12.6408 22.1071 14.4202 22.3063 16.2776 21.8527C17.024 21.6703 17.5207 21.9127 17.6551 22.4922C17.7931 23.0862 17.4751 23.5529 16.7348 23.7053C15.9381 23.8685 15.1258 23.9597 14.3207 24.0833L14.3219 24.0821Z" fill="#219653"/>
</svg>
