<svg width="50" height="50" viewBox="0 0 50 50" fill="none" xmlns="http://www.w3.org/2000/svg">
<g clip-path="url(#clip0_1_413)">
<path d="M49.9688 19.5287C49.9668 18.9311 49.715 18.2495 49.3676 17.7554C48.0558 15.8942 46.6836 14.076 45.2782 12.2851C44.8019 11.6777 44.5423 11.0977 44.7316 10.3321C44.9327 9.52163 44.6379 8.89082 44.0231 8.34008C43.0802 7.50031 42.1784 6.61366 41.1244 5.62155C42.2136 4.58452 43.1622 3.70373 44.0836 2.79364C44.9346 1.95191 45.0186 1.04964 44.351 0.411016C43.6932 -0.217841 42.8655 -0.13191 42.0457 0.692244C41.1283 1.61209 40.2343 2.55733 39.2114 3.61194C38.1944 2.5671 37.2672 1.65311 36.385 0.698103C35.8169 0.0829165 35.1767 -0.0596505 34.3647 0.0614338C29.961 0.71568 25.5495 1.30938 21.1478 1.98706C20.4861 2.08862 19.7189 2.36204 19.2602 2.81512C13.3828 8.62522 7.54248 14.4724 1.71581 20.3333C-0.585575 22.6476 -0.560199 25.8407 1.72167 28.1686C3.11148 29.5865 4.52081 30.9848 5.93014 32.3812C9.78725 36.2051 13.6522 40.0212 17.4995 43.8568C17.6733 44.0307 17.7611 44.3549 17.7767 44.6146C17.9739 47.8956 20.1777 49.9892 23.496 49.9931C30.4236 50.0009 37.3531 50.0009 44.2807 49.9931C47.7143 49.9892 49.9903 47.7374 49.9922 44.3256C50 36.0586 50.0078 27.7936 49.9688 19.5267V19.5287ZM18.5985 40.9157C13.6951 36.0176 8.79565 31.1176 3.90203 26.2098C2.60592 24.9091 2.60201 23.5948 3.89813 22.296C9.52764 16.6519 15.163 11.0137 20.812 5.3911C21.0834 5.12159 21.5109 4.91848 21.8915 4.85989C25.7779 4.26814 29.6721 3.72521 33.5604 3.13932C34.2651 3.03386 34.7882 3.15299 35.2762 3.7213C35.8247 4.35993 36.4826 4.90285 37.1657 5.55515C36.3869 6.28751 35.7252 6.90856 34.8117 7.76786C34.5716 7.42609 34.349 6.973 34.0055 6.64881C33.3848 6.06487 32.5415 6.09221 31.9832 6.62537C31.3957 7.18783 31.3547 8.07253 31.9832 8.72482C33.3145 10.1075 34.675 11.4629 36.0531 12.7987C36.7207 13.4452 37.562 13.4373 38.1476 12.8671C38.7586 12.2734 38.741 11.4121 38.0695 10.6954C37.804 10.4122 37.4703 10.1954 37.0994 9.89465C37.9446 9.19353 38.6571 8.60178 39.4847 7.91434C40.0371 8.4807 40.8218 9.24822 41.5538 10.0646C41.708 10.2384 41.7334 10.6016 41.6963 10.8614C41.1439 14.8552 40.5876 18.8471 39.9844 22.8331C39.918 23.2745 39.6565 23.7588 39.3403 24.0791C33.7459 29.7115 28.132 35.3243 22.5142 40.9352C21.2298 42.2183 19.8868 42.2085 18.5965 40.9196L18.5985 40.9157ZM47.0584 44.3802C47.0584 46.0676 46.0765 47.0558 44.3998 47.0578C37.3785 47.0675 30.3592 47.0656 23.3379 47.0578C21.8798 47.0578 21.0619 46.3469 20.7672 44.7884C23.0978 44.7962 24.4544 43.1655 25.9204 41.6969C31.179 36.4258 36.4396 31.1567 41.7158 25.9051C42.3404 25.2841 42.7289 24.6376 42.8402 23.7276C43.1681 21.0598 43.5936 18.4037 44.0211 15.4782C45.0752 16.8804 45.9867 18.06 46.8495 19.2728C47.0174 19.5091 47.0564 19.8782 47.0564 20.1868C47.0662 28.2526 47.0701 36.3164 47.0603 44.3822L47.0584 44.3802Z" fill="#219653"/>
<path d="M26.8602 12.6374C26.8173 11.8484 26.5226 11.2996 25.7847 11.1219C25.08 10.952 24.4905 11.1687 24.1255 11.823C23.985 12.0749 23.9108 12.3659 23.8191 12.6413C23.0031 15.0727 22.1892 17.5061 21.3791 19.9395C19.9737 24.1599 18.5663 28.3803 17.1765 32.6065C16.8681 33.542 17.2253 34.3095 18.0295 34.5907C18.8493 34.8778 19.5716 34.4872 19.9346 33.5615C19.9815 33.4404 20.0264 33.3174 20.0674 33.1944C22.2594 26.6011 24.4515 20.0079 26.6416 13.4147C26.7334 13.1393 26.7997 12.8542 26.8622 12.6354L26.8602 12.6374Z" fill="#219653"/>
<path d="M30.2396 27.267C32.6308 27.2592 34.5769 25.3258 34.6023 22.9314C34.6277 20.4609 32.7265 18.5138 30.2689 18.4943C27.8348 18.4748 25.836 20.4375 25.8282 22.8533C25.8184 25.2555 27.8367 27.2748 30.2396 27.267ZM30.2104 21.4316C31.0107 21.4218 31.6353 22.0096 31.6665 22.8025C31.6997 23.6326 31.0653 24.3141 30.2494 24.3239C29.4569 24.3337 28.7503 23.6267 28.7678 22.8396C28.7854 22.078 29.4374 21.4413 30.2123 21.4316H30.2104Z" fill="#219653"/>
<path d="M13.683 18.4922C11.243 18.4863 9.26565 20.451 9.27346 22.8747C9.28127 25.2885 11.2977 27.2884 13.7006 27.265C16.0937 27.2396 18.0203 25.3061 18.0398 22.9059C18.0593 20.4471 16.1366 18.4981 13.683 18.4922ZM13.6674 24.3218C12.8632 24.3199 12.1878 23.6188 12.2151 22.818C12.2405 22.0408 12.8788 21.4334 13.6674 21.4314C14.4696 21.4314 15.0787 22.0193 15.1021 22.82C15.1255 23.65 14.4813 24.3238 13.6674 24.3218Z" fill="#219653"/>
</g>
<defs>
<clipPath id="clip0_1_413">
<rect width="50" height="50" fill="white"/>
</clipPath>
</defs>
</svg>
