<svg width="30" height="30" viewBox="0 0 30 30" fill="none" xmlns="http://www.w3.org/2000/svg">
<g clip-path="url(#clip0_1_650)">
<path fill-rule="evenodd" clip-rule="evenodd" d="M3.46658 9.33352C2.93275 9.4751 2.61477 10.0226 2.75635 10.5565L2.82768 10.8254C2.96926 11.3592 3.51679 11.6772 4.05062 11.5356L24.1386 6.20794C24.6724 6.06636 24.9904 5.51883 24.8488 4.985L24.7775 4.71606C24.6359 4.18223 24.0884 3.86425 23.5545 4.00583L3.46658 9.33352ZM3.75 16C3.75 15.4477 4.19771 15 4.75 15H27.75C28.3023 15 28.75 15.4477 28.75 16V16.5C28.75 17.0523 28.3023 17.5 27.75 17.5H4.75C4.19772 17.5 3.75 17.0523 3.75 16.5V16ZM6.25 21C6.25 20.4477 6.69771 20 7.25 20H27.75C28.3023 20 28.75 20.4477 28.75 21V27.75C28.75 28.3023 28.3023 28.75 27.75 28.75H7.25C6.69771 28.75 6.25 28.3023 6.25 27.75V21Z" fill="#E9FBF2"/>
<path d="M4.05085 10.9769H4.3706L12.6366 8.87315L9.44721 5.39314L3.04298 7.02215L4.05085 10.9769ZM18.5965 24.4362L14.8961 26.5351C14.6984 26.6469 14.4829 26.702 14.2636 26.7004C14.0433 26.6988 13.8272 26.6405 13.6312 26.5243C13.4318 26.4082 13.2758 26.2489 13.1688 26.0588C13.0602 25.8692 13.0051 25.6547 13.0068 25.4263L13.0392 21.1728C13.0408 20.9416 13.1002 20.7256 13.212 20.5376C13.3222 20.348 13.4815 20.1903 13.6792 20.0785C13.8785 19.9667 14.0924 19.9116 14.3117 19.9132C14.5321 19.9149 14.7481 19.9732 14.9458 20.0893L18.6127 22.2433C18.8104 22.3595 18.9681 22.5188 19.075 22.7089C19.182 22.899 19.2387 23.1145 19.2371 23.3414C19.2355 23.5726 19.176 23.7886 19.0642 23.9766C18.9541 24.1662 18.7942 24.3244 18.5965 24.4362ZM14.5164 25.0163L17.4882 23.3306L14.5423 21.6006L14.5164 25.0163ZM7.37314 13.6716C7.85979 13.6716 8.25354 14.0664 8.25354 14.552C8.25354 15.0376 7.85979 15.4324 7.37314 15.4324C6.88649 15.4324 6.49274 15.0386 6.49274 14.552C6.49274 14.0653 6.88757 13.6716 7.37314 13.6716ZM6.36419 7.50124C6.83572 7.38187 7.31481 7.66651 7.43417 8.13642C7.55516 8.60795 7.27052 9.08704 6.79899 9.2064C6.32746 9.32577 5.84838 9.04275 5.72901 8.57122C5.60964 8.09969 5.89429 7.6206 6.36419 7.50124ZM14.4099 8.42161L18.8588 7.28843L15.671 3.80842L11.2221 4.9416L14.4099 8.42161ZM20.6337 6.83851L24.6111 5.8247L23.5854 1.79323L17.4443 3.35634L20.6337 6.83851ZM10.9358 10.9769H28.9346C29.3835 10.9769 29.7459 11.3399 29.7459 11.7871V29.1893C29.7459 29.6381 29.3829 30.0006 28.9346 30.0006H3.46266C3.01544 30.0006 2.65247 29.6376 2.65247 29.1893V12.0534L1.27516 6.6365C1.16498 6.20332 1.42694 5.76204 1.86011 5.65348L23.9711 0.0254063C24.4043 -0.0847786 24.8455 0.177181 24.9541 0.610359L26.3811 6.21089C26.4913 6.64406 26.2283 7.08534 25.7945 7.19553L10.9358 10.9769ZM4.57099 12.5984L4.2723 12.6734V16.7568H10.7856L13.018 12.5984H4.57099ZM23.4807 12.5984L21.25 16.7568H28.1245V12.5984H23.4807ZM19.4141 16.7568L21.6465 12.5984H14.8517L12.621 16.7568H19.4141ZM28.1245 18.3766H4.27284V28.3791H28.125L28.1245 18.3766Z" fill="#219653"/>
</g>
<defs>
<clipPath id="clip0_1_650">
<rect width="30" height="30" fill="white"/>
</clipPath>
</defs>
</svg>
