<svg width="30" height="30" viewBox="0 0 30 30" fill="none" xmlns="http://www.w3.org/2000/svg">
<path fill-rule="evenodd" clip-rule="evenodd" d="M9.40891 27.0919L12.3894 27.0756C12.3894 25.4762 12.2603 23.2495 12.4069 21.7299C12.6672 19.0446 15.3594 19.331 17.1373 19.331C20.9816 19.331 20.0455 23.5091 20.0455 27.0738C25.0891 27.3583 24.4857 26.8085 24.4857 23.9516C24.4857 23.2314 24.344 17.744 24.6186 17.3265C24.9793 16.7761 25.8867 17.1549 26.5644 16.9533C28.1408 16.4809 26.1188 14.8078 25.6196 14.3085L17.601 6.29057C15.9928 4.68235 16.2318 4.89641 13.7749 7.35397L5.75439 15.3688C5.36498 15.7564 5.01113 16.5346 5.73692 16.899C6.31356 17.1911 7.27773 16.7661 7.73205 17.2248C8.07903 17.5749 7.94985 18.7338 7.94985 19.3142V23.8555C7.94985 25.3876 7.54858 27.0925 9.40954 27.0925L9.40891 27.0919Z" fill="#E9FBF2"/>
<path d="M3.95776 22.9871C3.96836 21.2303 3.98085 19.4649 3.94715 17.7262C3.29625 17.6857 2.77578 17.5583 2.35329 17.3262C1.86652 17.0591 1.51829 16.6609 1.2618 16.1055C0.977226 15.4914 0.948519 14.9148 1.0621 14.4C1.21063 13.7297 1.60316 13.1755 1.98384 12.7849L12.2453 2.52839C12.3265 2.44539 12.4101 2.35677 12.4968 2.26628C13.0841 1.64596 13.7044 0.993189 15.0542 1.00005C16.3261 1.00692 17.0175 1.74456 17.5979 2.36426C17.6897 2.46161 17.7783 2.55522 17.86 2.63822C18.9603 3.74032 20.1547 4.91668 21.3679 6.11239C23.6925 8.40333 26.0927 10.7685 28.0672 12.8435C28.6401 13.4433 28.9571 14.2215 28.9746 14.9785C28.9815 15.3286 28.9253 15.6755 28.7992 15.9994C28.6719 16.3264 28.4735 16.6291 28.2033 16.8856C27.724 17.3437 27.0126 17.6607 26.0484 17.7243C26.0147 19.4118 26.0253 21.1261 26.0359 22.8317C26.0415 23.6261 26.0465 24.4187 26.0484 25.2056C26.0484 25.982 25.9847 26.5255 25.8075 26.9761C25.6234 27.4398 25.3313 27.7936 24.8808 28.188C23.9908 28.9631 23.1808 28.9556 22.0026 28.9469C21.8734 28.945 21.7405 28.9431 21.6025 28.9431C20.9585 28.9431 20.4137 28.9594 19.9575 28.9712C18.7456 29.0049 18.1228 29.0224 17.7483 28.6723C17.352 28.301 17.3608 27.6357 17.382 26.2665C17.3876 25.927 17.3945 25.5358 17.3945 24.9909C17.3945 24.7875 17.4013 24.4424 17.4107 24.0549C17.4357 23.0445 17.4656 21.7321 17.3595 21.191C17.1879 20.303 16.2612 20.3086 15.2315 20.3155H14.7553C13.6638 20.3117 12.7065 20.3086 12.6079 21.3589C12.5405 22.0859 12.5617 23.052 12.5811 23.9469C12.5917 24.375 12.6004 24.7869 12.6004 25.097C12.6004 25.5851 12.6042 25.8827 12.606 26.1461C12.6204 27.6282 12.6273 28.3272 12.2029 28.7041C11.8241 29.0386 11.2125 29.0174 10.0536 28.9781C9.56872 28.9619 8.98522 28.9425 8.28626 28.9425C8.19265 28.9444 8.10217 28.9444 8.01355 28.9444C6.65496 28.95 5.94041 28.9513 4.99745 28.0794C4.55686 27.6726 4.2935 27.2994 4.13749 26.8307C3.98709 26.3757 3.94465 25.8403 3.94652 25.0989C3.94839 24.3968 3.95339 23.6923 3.95713 22.9865L3.95776 22.9871ZM10.4923 26.8207C10.4886 26.3445 10.478 25.8228 10.4655 25.2855C10.4337 23.8458 10.4 22.2888 10.5135 21.1037C10.8019 18.1443 13.4554 18.1774 15.4967 18.2061C15.6402 18.208 15.78 18.2099 16.0184 18.2099C19.1088 18.2099 19.6149 20.4228 19.6149 23.1437C19.6149 23.7541 19.5868 24.4156 19.5581 25.0846C19.5331 25.6631 19.5101 26.2453 19.5051 26.8326C23.2519 27.0323 23.8854 26.7814 23.9559 25.5432C23.9721 25.2512 23.9628 24.9117 23.954 24.5173C23.9471 24.2202 23.9397 23.8945 23.9397 23.5955C23.9397 23.4046 23.934 23.15 23.9291 22.8067C23.8991 20.8965 23.8317 16.5461 24.1269 16.0949C24.4489 15.605 24.9918 15.6188 25.5685 15.6369C25.8655 15.6437 26.1732 15.6531 26.4266 15.5782C26.8584 15.449 26.952 15.2225 26.8778 14.9697C26.7118 14.4143 25.956 13.7016 25.5086 13.2785C24.1818 12.026 15.5953 2.8841 14.882 3.08193C14.56 3.17242 14.13 3.61239 13.3431 4.42117C10.1198 7.72746 6.80661 10.9664 3.53901 14.2321C3.42917 14.3419 3.32121 14.4848 3.24195 14.6408C2.78202 15.5557 3.69315 15.6512 4.36714 15.6244C4.87638 15.6032 5.38249 15.5838 5.73821 15.9408C6.12763 16.3314 6.09205 17.2906 6.06522 18.0108C6.0596 18.1593 6.05461 18.2972 6.05461 18.4408V23.4894C6.05461 23.7335 6.044 24.0093 6.03339 24.2839C6.02466 24.526 6.01405 24.7669 6.01405 25.0253C6.01405 26.025 6.16632 26.8388 7.39198 26.8388L10.4911 26.8226L10.4923 26.8207Z" fill="#219653"/>
</svg>
