<svg width="30" height="30" viewBox="0 0 30 30" fill="none" xmlns="http://www.w3.org/2000/svg">
<path fill-rule="evenodd" clip-rule="evenodd" d="M18.0499 17.316L17.2783 17.3159H17.2782H17.2781H17.278C16.5072 17.3157 15.7366 17.3155 14.9655 17.3171L14.9355 17.3171C14.7184 17.3178 14.5308 17.3184 14.5347 16.9934C14.5436 16.2476 14.5397 15.5011 14.5357 14.7547V14.7547V14.7547V14.7547C14.5275 13.2243 14.5193 11.6944 14.6227 10.1722C14.834 7.06599 17.608 4.57782 20.7198 4.50196C23.9771 4.42307 26.7926 6.73322 27.2608 9.86771C27.8504 13.8134 24.9864 17.2139 20.9817 17.31C20.3149 17.3259 19.6476 17.3215 18.9804 17.3171H18.9803H18.9802H18.9801C18.67 17.315 18.3599 17.313 18.0499 17.313V17.315V17.316ZM23.7917 10.317C24.063 10.9419 24.2765 11.4338 24.6861 11.383C24.73 11.464 24.7768 11.5441 24.8236 11.6241C24.9297 11.8056 25.0358 11.9872 25.1088 12.1809C25.307 12.7069 24.9095 13.1822 24.2684 13.1863C23.3308 13.1928 22.3932 13.1916 21.4556 13.1903C21.0805 13.1898 20.7055 13.1893 20.3304 13.1893C20.0681 13.1893 19.8057 13.1889 19.5434 13.1884C18.9138 13.1874 18.2841 13.1863 17.6545 13.1913C17.2197 13.1954 16.8809 13.0457 16.7656 12.6067C16.6564 12.188 16.8667 11.9058 17.2348 11.7045C17.336 11.6489 17.4351 11.4972 17.4452 11.3819C17.5847 9.77668 18.3958 8.69544 19.9117 8.13408C20.0331 8.08958 20.1474 7.92876 20.1939 7.79727C20.3274 7.42303 20.5549 7.18332 20.9645 7.19445C21.37 7.20557 21.6036 7.43517 21.7007 7.83065C21.728 7.93887 21.819 8.08351 21.9131 8.11588C22.9969 8.4862 23.4422 9.51198 23.7917 10.317ZM10.935 27.3293H6.2992V26.7751C6.2992 25.9446 6.29948 25.114 6.29976 24.2834C6.30078 21.2378 6.3018 18.1918 6.28909 15.1464C6.28706 14.7519 6.40741 14.5577 6.76136 14.3817C8.14261 13.6962 9.51529 12.9935 10.888 12.2908C11.4027 12.0272 11.9175 11.7637 12.4327 11.5011C12.5374 11.4478 12.6447 11.3992 12.7698 11.3424C12.8369 11.312 12.9092 11.2792 12.9889 11.2422C12.9925 11.3156 12.9965 11.3836 13.0003 11.4477L13.0003 11.4478L13.0003 11.4479L13.0003 11.448C13.0082 11.5834 13.0152 11.7021 13.0152 11.8207C13.0164 12.938 13.0162 14.0552 13.016 15.1725V15.1746C13.0159 16.0118 13.0158 16.849 13.0162 17.6861C13.0162 18.6066 13.2397 18.8372 14.1377 18.8372C14.6652 18.8374 15.1927 18.8381 15.7202 18.8387L15.7238 18.8387C17.3856 18.8408 19.0474 18.8429 20.7091 18.8321C21.1197 18.8294 21.5298 18.7948 21.9512 18.7593C22.1495 18.7426 22.3502 18.7257 22.5547 18.7118V27.3263H17.9473V26.8003V21.0361C17.9473 20.1935 17.7197 19.971 16.8612 19.971C16.3107 19.971 15.7602 19.9708 15.2097 19.9706C14.1087 19.9701 13.0078 19.9697 11.9068 19.971C11.1888 19.972 10.939 20.2198 10.937 20.944C10.934 22.3973 10.9343 23.8506 10.9347 25.3043V25.3045V25.3046V25.3048L10.935 26.7589V27.3293ZM16.4079 27.3254V21.5176H12.4922V27.3254H16.4079ZM7.42188 12.348V9.7793H9.55368C9.55368 9.89073 9.554 10.0022 9.55431 10.1137V10.1138V10.1139C9.55526 10.4487 9.55621 10.7837 9.54863 11.1182C9.5466 11.187 9.49098 11.2851 9.43132 11.3165C8.90827 11.5911 8.38192 11.8591 7.82451 12.1429L7.82446 12.1429L7.42188 12.348ZM18.9824 11.6421H22.9022C22.9497 10.8442 22.6534 10.2394 22.0133 9.82784C21.3327 9.38994 20.6106 9.38388 19.9219 9.80458C19.2555 10.2121 18.9531 10.831 18.9824 11.6421Z" fill="#E9FBF2"/>
<path d="M2.94634 14.4571C2.64671 14.5971 2.42363 14.7097 2.19398 14.806C1.72376 15.0028 1.29072 14.8508 1.08623 14.4253C0.894856 14.0283 1.02389 13.5908 1.45475 13.3579C2.1743 12.9674 2.9026 12.5901 3.64402 12.2445C4.00489 12.076 4.15033 11.8693 4.14049 11.457C4.11097 10.2364 4.12737 9.01474 4.13065 7.79307C4.13284 6.92685 4.37888 6.67748 5.2231 6.67529C6.4074 6.6731 7.5928 6.66982 8.77711 6.67639C9.45511 6.68076 9.74162 6.96731 9.75255 7.63557C9.75911 8.09056 9.75365 8.54554 9.75365 9.11646C10.5126 8.726 11.2245 8.38805 11.9025 7.99103C12.0457 7.90681 12.0873 7.61807 12.1398 7.41464C13.1218 3.65227 16.526 1.00657 20.4026 1.00001C24.3503 0.99345 27.819 3.70367 28.7529 7.52183C29.69 11.3564 27.889 15.3473 24.3678 17.1585C23.9653 17.3652 23.8385 17.5851 23.8407 18.0215C23.8593 21.284 23.8505 24.5466 23.8505 27.8091C23.8505 28.7574 23.6066 28.9991 22.6531 28.9991C16.4932 28.9991 10.3332 28.9991 4.1733 28.9991C3.16724 28.9991 2.94634 28.7836 2.94634 27.7949C2.94634 23.5666 2.94634 19.3372 2.94634 15.1089C2.94634 14.9164 2.94634 14.7228 2.94634 14.456V14.4571ZM9.60492 27.329C9.60492 27.1048 9.60492 26.909 9.60492 26.7121C9.60492 24.6166 9.60164 22.521 9.60711 20.4244C9.6093 19.6413 9.8794 19.3733 10.6558 19.3722C12.4416 19.3689 14.2273 19.3711 16.0131 19.3722C16.9404 19.3722 17.1865 19.6128 17.1875 20.5239C17.1875 22.6019 17.1875 24.6789 17.1875 26.757V27.3257H22.1697V18.0105C21.4797 18.0576 20.8269 18.1363 20.174 18.1407C17.8054 18.156 15.4368 18.1483 13.0682 18.1462C12.0971 18.1462 11.8554 17.8968 11.8554 16.9015C11.8554 14.7874 11.8554 12.6732 11.8543 10.5591C11.8543 10.3699 11.8379 10.1806 11.8259 9.93346C11.5788 10.0483 11.3983 10.1249 11.2245 10.2135C9.18172 11.2536 7.14555 12.3079 5.09187 13.3284C4.70913 13.5187 4.579 13.7286 4.58119 14.1552C4.59869 18.3463 4.59212 22.5385 4.59212 26.7296V27.329H9.6082H9.60492ZM17.2947 16.5023V16.5001C18.3522 16.5001 19.4096 16.522 20.4649 16.4968C24.7953 16.3929 27.8922 12.7159 27.2547 8.44929C26.7484 5.05988 23.7029 2.56183 20.1817 2.64714C16.8157 2.72808 13.8173 5.41971 13.5887 8.7785C13.4214 11.2284 13.522 13.6958 13.4936 16.1545C13.4892 16.522 13.7123 16.5056 13.9594 16.5045C15.0715 16.5023 16.1826 16.5034 17.2947 16.5034V16.5023ZM15.521 21.0467H11.2868V27.3279H15.521V21.0467ZM5.80158 11.1311C6.56925 10.7395 7.27458 10.383 7.97445 10.0155C8.03897 9.98159 8.09912 9.8755 8.1013 9.80112C8.11224 9.3188 8.10677 8.83538 8.10677 8.35305H5.80158V11.1311Z" fill="#219653"/>
<path d="M25.1485 11.1524C25.1485 11.7629 24.7129 12.0319 24.0196 12.0363C22.6002 12.0461 21.1808 12.0396 19.7613 12.0396C18.7968 12.0396 17.8323 12.0341 16.8678 12.0417C16.3976 12.045 16.0313 11.8832 15.9066 11.4096C15.7874 10.9568 16.016 10.6527 16.414 10.434C16.5234 10.3738 16.6305 10.2098 16.6415 10.0851C16.7924 8.34937 17.6705 7.18019 19.3086 6.57317C19.4398 6.52505 19.5623 6.35115 19.6137 6.20897C19.7581 5.80429 20.003 5.54399 20.447 5.55711C20.8844 5.56915 21.1381 5.81742 21.2431 6.24506C21.2715 6.36209 21.3699 6.51849 21.4727 6.55349C23.2793 7.16925 24.0175 8.58309 24.0985 10.4522C24.7985 10.4522 25.1485 10.8023 25.1485 11.1524ZM22.5422 10.3684C22.5936 9.50542 22.2732 8.85138 21.581 8.40624C20.845 7.93266 20.0643 7.9261 19.3196 8.38108C18.5989 8.82185 18.2719 9.4912 18.3037 10.3684H22.5422Z" fill="#219653"/>
</svg>
