<svg width="50" height="50" viewBox="0 0 50 50" fill="none" xmlns="http://www.w3.org/2000/svg">
<path d="M31.5447 5.52686C28.4587 6.84522 25.7829 8.04639 25.5974 8.19287C25.4118 8.33936 25.2068 8.61279 25.1384 8.79834C24.9822 9.21826 24.9529 16.4058 25.0993 18.0171C25.4021 21.396 26.2614 24.0815 27.7947 26.4448C29.4939 29.0425 32.1306 31.4155 35.8122 33.6226C37.4919 34.6284 37.5114 34.6284 39.1911 33.6226C44.9333 30.1655 48.0779 26.4448 49.3181 21.6108C49.8747 19.4038 50.0017 17.8511 49.9919 13.0366C49.9821 8.73975 49.9724 8.63233 49.406 8.19287C48.9177 7.82178 37.8923 3.12452 37.4822 3.12452C37.2771 3.12452 35.1091 4.00342 31.5447 5.52686ZM42.2575 8.41748L46.8767 10.3999V13.6226C46.8767 15.3901 46.8279 17.3237 46.779 17.9194C46.281 23.2808 44.0739 26.689 38.8786 30.1265C38.1853 30.5854 37.57 30.9565 37.5114 30.9565C37.4529 30.9565 36.9548 30.6733 36.4177 30.3218C33.0779 28.1538 30.8122 25.8394 29.6404 23.3882C28.8982 21.8452 28.4197 19.9897 28.2243 17.9194C28.1755 17.3237 28.1267 15.3901 28.1267 13.6226V10.3999L32.697 8.42725C35.2068 7.35303 37.3454 6.46436 37.4529 6.45459C37.5603 6.44483 39.7282 7.3335 42.2575 8.41748Z" fill="#219653"/>
<path d="M41.5156 12.666C41.291 12.7734 40.3828 13.8379 38.6543 15.9863C37.2676 17.7246 36.0957 19.1406 36.0566 19.1406C36.0176 19.1406 35.5488 18.4766 35.0117 17.666C33.8496 15.9082 33.5957 15.6738 32.8047 15.6738C31.8672 15.6738 31.3008 16.2402 31.3008 17.1875V17.7539L33.0586 20.3711C34.9336 23.1738 35.1777 23.4277 35.9199 23.4375C36.6523 23.4375 36.7891 23.3008 40.2559 18.9648C42.082 16.6895 43.6055 14.7168 43.6641 14.5898C44.1328 13.3398 42.707 12.0605 41.5156 12.666Z" fill="#219653"/>
<path d="M2.17841 12.6856C1.47529 12.9199 0.93818 13.3203 0.586617 13.8574C-0.0383826 14.7949 -0.00908572 13.8672 0.0202112 29.8926L0.049508 44.4824L0.303414 45.0293C0.62568 45.7227 1.15302 46.25 1.84638 46.5723L2.39326 46.8262H25.0007H47.6081L48.155 46.5723C48.8483 46.25 49.3757 45.7227 49.6979 45.0293L49.9518 44.4824V38.3594C49.9518 32.334 49.9518 32.2363 49.7468 31.9727C49.3659 31.4551 49.0534 31.2988 48.4382 31.2988C47.8229 31.2988 47.5104 31.4551 47.1296 31.9727C46.9245 32.2363 46.9245 32.3535 46.8952 37.998L46.8757 43.75H25.0007H3.12568V34.375V25L11.9929 24.9805L20.8698 24.9512L21.2311 24.668C22.1101 24.0039 22.071 22.8125 21.153 22.1289C20.8893 21.9238 20.8015 21.9238 12.0026 21.8945L3.12568 21.875V18.75V15.625L11.9929 15.6055L20.8698 15.5762L21.2311 15.293C22.1101 14.6289 22.071 13.4375 21.153 12.7539C20.8893 12.5488 20.8015 12.5488 11.7878 12.5293C3.2331 12.5098 2.65693 12.5195 2.17841 12.6856Z" fill="#219653"/>
<path d="M7.17687 31.3867C6.5128 31.6796 6.15148 32.4218 6.29796 33.1738C6.38585 33.6328 6.99132 34.248 7.44054 34.3261C7.61632 34.3554 9.30577 34.375 11.1905 34.3554L14.6183 34.3261L14.9796 34.0429C15.8585 33.3789 15.8194 32.1875 14.9015 31.5039C14.6476 31.3085 14.5011 31.2988 11.0538 31.2792C8.22179 31.2597 7.41124 31.2792 7.17687 31.3867Z" fill="#219653"/>
</svg>
