<svg width="18" height="19" viewBox="0 0 18 19" fill="none" xmlns="http://www.w3.org/2000/svg">
<g filter="url(#filter0_d_1_227)">
<path fill-rule="evenodd" clip-rule="evenodd" d="M17.1944 9.847C17.0624 9.60666 17.0654 9.38809 17.1966 9.14845C17.3968 8.78253 17.5821 8.40846 17.7672 8.03492L17.7771 8.01489C18.2448 7.07247 17.9714 6.26007 17.0184 5.76181C16.9535 5.72784 16.8886 5.69368 16.8237 5.65951L16.8233 5.65927C16.5245 5.50193 16.2257 5.34456 15.9174 5.20662C15.5957 5.06256 15.4395 4.83697 15.3911 4.50667C15.3266 4.06673 15.2504 3.6275 15.1529 3.19319C14.9594 2.33301 14.1905 1.82842 13.2793 1.94648C13.1371 1.96487 12.9949 1.9857 12.8528 2.00652C12.5115 2.05651 12.1703 2.10651 11.8272 2.12288C11.622 2.13272 11.3691 2.04768 11.2078 1.92329C10.9823 1.74919 10.7769 1.55123 10.5714 1.35318L10.5714 1.35318C10.4575 1.24345 10.3436 1.1337 10.2263 1.02797C9.4493 0.327306 8.55795 0.323792 7.78168 1.01883L7.67174 1.11692L7.67173 1.11693C7.41301 1.34751 7.1537 1.57861 6.91745 1.82912C6.66089 2.10179 6.37282 2.18894 6.00118 2.12218C5.71872 2.07201 5.43345 2.03703 5.14804 2.00204L5.14801 2.00204C5.02161 1.98654 4.89519 1.97104 4.76897 1.95421C3.76914 1.82139 3.02952 2.32457 2.82941 3.28315C2.74291 3.69567 2.66668 4.11101 2.6029 4.52705C2.55452 4.84259 2.40499 5.06185 2.09419 5.1996C1.83175 5.31577 1.57736 5.44854 1.32297 5.58131L1.32294 5.58133C1.23415 5.62767 1.14536 5.67401 1.05623 5.71964C0.0146157 6.25445 -0.2588 7.05139 0.252114 8.06619C0.307476 8.17612 0.365713 8.28511 0.423957 8.39412L0.423964 8.39413C0.560825 8.65027 0.697727 8.90649 0.797479 9.17516C0.870048 9.37123 0.870048 9.63406 0.79528 9.82873C0.692791 10.0952 0.557141 10.3495 0.421347 10.6041C0.351244 10.7355 0.281101 10.867 0.215463 11.0002C-0.239742 11.9251 0.0336742 12.7375 0.966074 13.2294C1.10205 13.3013 1.24071 13.3691 1.37935 13.4369C1.64355 13.5662 1.90765 13.6954 2.15283 13.8521C2.33389 13.968 2.50468 14.1789 2.56185 14.3784C2.6421 14.6604 2.69136 14.95 2.74067 15.2398L2.74067 15.2398C2.77198 15.4238 2.80331 15.608 2.8426 15.7903C3.03245 16.6681 3.81092 17.1783 4.73819 17.0511C4.85588 17.0349 4.97352 17.0173 5.09117 16.9998C5.44471 16.9469 5.79835 16.894 6.15365 16.8803C6.36989 16.8719 6.63231 16.9597 6.80383 17.089C7.0311 17.2605 7.23595 17.4589 7.44082 17.6574C7.54585 17.7592 7.65089 17.8609 7.75895 17.9591C8.54988 18.6766 9.44197 18.6801 10.23 17.9682C10.2833 17.9201 10.3369 17.8722 10.3906 17.8243L10.391 17.8239C10.6234 17.6164 10.8563 17.4084 11.0671 17.1818C11.3317 16.8972 11.63 16.8107 12.0156 16.8782C12.3621 16.9386 12.7119 16.9823 13.0318 17.0222L13.0319 17.0222C13.1661 17.039 13.2951 17.0551 13.4164 17.0715C14.296 17.1017 14.9807 16.5823 15.1529 15.8016C15.2519 15.3553 15.3303 14.9048 15.3985 14.4536C15.4447 14.1479 15.5949 13.9413 15.8881 13.8071C16.1473 13.6886 16.4005 13.5574 16.6536 13.4264L16.654 13.4261C16.7444 13.3793 16.8347 13.3326 16.9253 13.2863C17.9934 12.7403 18.2624 11.956 17.7383 10.918C17.6884 10.8192 17.6392 10.72 17.5899 10.6208L17.5898 10.6207C17.4608 10.361 17.3317 10.1011 17.1922 9.8463L17.1944 9.847ZM6.81703 4.83837C7.91216 4.82924 8.80497 5.66764 8.8167 6.71547C8.82843 7.75064 7.93708 8.62348 6.85294 8.63754C5.78127 8.65159 4.8672 7.7893 4.8518 6.75061C4.83641 5.71332 5.72629 4.84751 6.81703 4.83837ZM5.62652 13.3842L5.62651 13.3842L5.62649 13.3842C5.59365 13.4035 5.56473 13.4204 5.54231 13.4353C5.03799 13.4445 4.76897 13.0432 4.95369 12.7002C5.00794 12.599 5.09663 12.5119 5.18166 12.4304C7.46721 10.237 9.75423 8.0444 12.0412 5.85247C12.0559 5.83838 12.0705 5.82396 12.085 5.80951L12.085 5.80951C12.13 5.76484 12.1752 5.71991 12.2267 5.6838C12.4774 5.50811 12.7318 5.5053 12.9517 5.72246C13.1716 5.93961 13.1606 6.18277 12.9707 6.4189C12.9375 6.46014 12.8986 6.49674 12.8598 6.53328L12.8597 6.53335C12.8463 6.54598 12.8329 6.5586 12.8197 6.5714L11.9597 7.3962L11.9597 7.39622C9.95139 9.32243 7.94306 11.2486 5.93081 13.1711V13.1704C5.83482 13.2619 5.71607 13.3316 5.62652 13.3842ZM11.1675 14.162C10.0731 14.1634 9.18541 13.3159 9.18468 12.2694C9.18394 11.2315 10.0841 10.3642 11.1631 10.3628C12.2406 10.3614 13.1459 11.2286 13.1488 12.2652C13.1518 13.306 12.2582 14.1613 11.1675 14.1627V14.162ZM6.81783 7.59811C7.30749 7.60724 7.73337 7.21088 7.73777 6.74003C7.7429 6.27339 7.31922 5.86579 6.83103 5.86719C6.3553 5.8686 5.94554 6.25161 5.93015 6.70981C5.91402 7.17785 6.32524 7.58897 6.81783 7.59811ZM10.2618 12.2773C10.2545 11.8107 10.6752 11.4031 11.1649 11.4023H11.1656C11.6567 11.4009 12.076 11.805 12.0716 12.2738C12.0672 12.7432 11.6384 13.1431 11.151 13.1326C10.6738 13.122 10.2684 12.7327 10.2618 12.2773Z" fill="#219653"/>
</g>
<defs>
<filter id="filter0_d_1_227" x="-4" y="0.5" width="26.0004" height="25.9997" filterUnits="userSpaceOnUse" color-interpolation-filters="sRGB">
<feFlood flood-opacity="0" result="BackgroundImageFix"/>
<feColorMatrix in="SourceAlpha" type="matrix" values="0 0 0 0 0 0 0 0 0 0 0 0 0 0 0 0 0 0 127 0" result="hardAlpha"/>
<feOffset dy="4"/>
<feGaussianBlur stdDeviation="2"/>
<feComposite in2="hardAlpha" operator="out"/>
<feColorMatrix type="matrix" values="0 0 0 0 0 0 0 0 0 0 0 0 0 0 0 0 0 0 0.25 0"/>
<feBlend mode="normal" in2="BackgroundImageFix" result="effect1_dropShadow_1_227"/>
<feBlend mode="normal" in="SourceGraphic" in2="effect1_dropShadow_1_227" result="shape"/>
</filter>
</defs>
</svg>
