<svg width="30" height="30" viewBox="0 0 30 30" fill="none" xmlns="http://www.w3.org/2000/svg">
<g clip-path="url(#clip0_1_644)">
<path fill-rule="evenodd" clip-rule="evenodd" d="M14.2854 15.3399C13.0226 15.3211 11.7876 15.3027 10.8165 13.8835L10.6999 13.75C10.4236 14.269 10.2494 14.7247 10.1448 15.2342C10.0225 15.832 9.99301 16.5128 10.0013 17.4568C10.0142 18.7288 10.1154 20.2545 10.4871 21.6095C10.8492 22.9319 11.4703 24.0878 12.5203 24.6615C13.3491 25.1135 14.117 25.0828 14.7803 24.7469C15.5731 24.3459 16.2219 23.5127 16.65 22.5389C16.777 22.2502 16.8853 21.96 16.9782 21.6562C17.0699 21.3528 17.1475 21.0372 17.2147 20.6975C17.2864 20.3324 17.3383 19.9578 17.3756 19.577C17.4134 19.1921 17.4366 18.8052 17.4507 18.4164C17.4565 18.2721 17.4636 18.1395 17.4706 18.006C17.5084 17.2997 17.5494 16.535 17.3188 16.2981C16.4181 15.3739 15.3408 15.3564 14.285 15.3404L14.2854 15.3399Z" fill="#E9FBF2"/>
<path fill-rule="evenodd" clip-rule="evenodd" d="M11.9034 26.2088C11.2275 26.2088 10.5653 26.0218 9.66207 25.6564L9.65889 27.4909L14.1426 27.5L14.141 25.6473C13.241 26.025 12.5788 26.2088 11.9029 26.2088H11.9034ZM8.93195 10.7408C9.81712 12.4273 11.1685 12.4246 12.7116 12.423C13.4534 12.4214 14.2361 12.4198 15.0432 12.5818C15.5067 12.6755 15.8439 12.8007 16.1344 12.9562C16.4248 13.1102 16.6702 13.2961 16.9564 13.5118L17.0286 13.5662C17.1098 13.6264 17.2017 13.6929 17.2861 13.7531L17.2893 13.7547C17.5829 13.9646 17.7799 14.1063 17.9127 14.3359C18.0407 14.5564 18.1023 14.852 18.1251 15.3629C18.4984 15.4156 18.7936 15.5397 19.0235 15.7193C19.2646 15.9052 19.4345 16.1513 19.5487 16.4394C19.6644 16.7324 19.716 17.0659 19.725 17.4238C19.7324 17.7802 19.6963 18.1589 19.6347 18.5457C19.4945 19.4198 19.1743 19.977 18.8175 20.3514C18.4623 20.7243 18.0741 20.9118 17.7969 21.0445C17.7444 21.07 17.696 21.0929 17.6583 21.1126C17.6238 21.1307 17.5967 21.1457 17.5829 21.1579C17.5288 21.2064 17.4688 21.3268 17.4056 21.4781C17.3392 21.6379 17.2744 21.827 17.2128 22.0065C17.1709 22.1258 17.13 22.2419 17.0923 22.3463C17.0514 22.4534 17.0127 22.5503 16.975 22.627C16.7116 23.1555 16.4917 23.5118 16.308 23.767C16.1243 24.0205 15.9783 24.1718 15.8625 24.2911C15.7558 24.403 15.6862 24.4722 15.6475 24.6368C15.6055 24.8105 15.5933 25.0886 15.5965 25.617C15.5981 25.9989 15.5981 26.3808 15.5981 26.7628V26.7841C15.5981 26.9972 15.5965 27.2097 15.5981 27.4228C16.2496 27.3807 16.9303 27.3066 17.5925 27.1916C18.1888 27.0872 18.7697 26.9513 19.3007 26.7734C19.7329 26.6301 20.1333 26.4581 20.4806 26.2573C20.7801 26.0836 21.0403 25.8886 21.25 25.667L21.241 25.6612C21.0195 25.4934 20.8348 25.3549 20.6691 25.1525C20.5018 24.9517 20.3547 24.689 20.2087 24.2784C19.6984 22.8422 20.016 20.3179 20.257 18.4077L20.2586 18.4045C20.3144 17.9576 20.367 17.5469 20.4031 17.1847C20.462 16.5897 20.5204 16.001 20.5459 15.4284C20.5714 14.8579 20.5671 14.3018 20.4992 13.7691C20.4328 13.2497 20.308 12.7501 20.0956 12.2728C19.8832 11.7955 19.5821 11.3428 19.1653 10.9198C19.0119 10.7627 18.9019 10.6055 18.8329 10.458C18.7549 10.2902 18.7246 10.132 18.7352 9.99294C18.741 9.9205 18.758 9.85231 18.7835 9.78893C18.809 9.72554 18.8451 9.66641 18.8903 9.61527C18.8934 9.61208 18.8977 9.60941 18.9009 9.60462L18.3922 9.26051C17.7598 9.5098 17.1247 9.7543 16.4774 9.95672C16.2831 10.0185 16.1131 10.0702 15.9581 10.1075C15.803 10.1453 15.666 10.1666 15.5429 10.1666C15.3698 10.1666 15.2285 10.132 15.1106 10.0531C14.9949 9.97323 14.9057 9.84912 14.8414 9.6744C14.7241 9.36172 14.8053 9.13107 14.9827 8.95422C15.1542 8.78376 15.4133 8.66604 15.6676 8.57069C16.0287 8.43485 16.3946 8.29742 16.7636 8.15679L15.793 7.5C15.793 7.56818 15.7839 7.63424 15.7627 7.69762C15.743 7.75942 15.7144 7.82014 15.674 7.87554C15.606 7.97195 15.5067 8.05665 15.3745 8.12004C15.2556 8.17437 15.1112 8.21219 14.9349 8.22551C14.783 8.23776 14.6035 8.24362 14.4097 8.24842C14.2186 8.25427 14.0093 8.25587 13.7953 8.25907C13.4327 8.26386 13.0504 8.26812 12.6861 8.28624C12.3234 8.30275 11.9804 8.33311 11.6942 8.38904C11.2699 8.47214 10.8722 8.57175 10.5111 8.67296C10.1501 8.77417 9.8219 8.87698 9.5357 8.96594C9.1024 9.10177 8.76522 9.20777 8.53158 9.236C8.3914 9.25252 8.24697 9.26796 8.10254 9.28288C7.96713 9.29673 7.82536 9.30845 7.68995 9.3207C7.25932 9.35852 6.89983 9.39155 6.53982 9.47944C6.18299 9.5668 5.8235 9.71062 5.38968 9.97323C4.03033 10.7946 3.46429 12.1444 3.28853 13.7148C3.11118 15.2942 3.32782 17.1 3.53544 18.82C3.67669 20.0009 3.81528 21.1425 3.82165 22.1647C3.82749 23.1917 3.69952 24.0962 3.31136 24.7966C3.17277 25.0459 3.06286 25.1999 2.95613 25.3128C2.8478 25.4273 2.74532 25.4987 2.62054 25.5861H2.61894C2.58124 25.6132 2.54195 25.6404 2.5 25.6708C2.70019 25.8881 2.97259 26.0863 3.29172 26.2626C3.67403 26.4773 4.12432 26.661 4.59797 26.8166C5.21658 27.019 5.86811 27.1697 6.4676 27.2694C7.12816 27.3796 7.72288 27.4292 8.12909 27.4174V27.0264C8.1275 26.7745 8.1275 26.5204 8.1275 26.2684C8.1275 26.0165 8.12909 25.7613 8.13068 25.5088V25.4726C8.13227 25.21 8.13387 25.0257 8.13068 24.8941C8.1259 24.7689 8.11847 24.6949 8.1036 24.648L8.10201 24.6448C8.09617 24.6299 8.08395 24.6129 8.06749 24.5905C8.04785 24.5649 8.01917 24.533 7.98306 24.4941C7.94112 24.4488 7.8912 24.3945 7.83279 24.3236C7.77385 24.2544 7.70642 24.1697 7.62942 24.0637C7.26357 23.5667 7.00763 23.123 6.81806 22.7352C6.63009 22.3485 6.50637 22.0182 6.40548 21.7492C6.34972 21.5995 6.3014 21.4711 6.2552 21.3673C6.21166 21.2708 6.16918 21.1984 6.12564 21.1574C6.0821 21.118 6.02316 21.0801 5.95732 21.0455C5.88829 21.0093 5.81288 20.9773 5.74226 20.9459C5.68067 20.9187 5.62173 20.8932 5.56332 20.8644C5.50438 20.8356 5.45021 20.8053 5.40242 20.7723C5.10135 20.5608 4.83373 20.2545 4.61496 19.8949C4.3845 19.5162 4.20715 19.0778 4.09724 18.6282C4.03086 18.3592 3.98891 18.0849 3.97511 17.8159C3.96024 17.5549 3.97033 17.2981 4.00962 17.0547C4.05316 16.7873 4.13175 16.5353 4.2491 16.3105C4.36061 16.0991 4.50504 15.9121 4.68877 15.7592C4.81674 15.6521 4.96435 15.5616 5.12843 15.495C5.27286 15.4348 5.43269 15.3922 5.6042 15.3698C5.64509 14.5426 5.78156 13.7648 5.97909 13.0761C6.2021 12.2941 6.50265 11.6283 6.82337 11.1419C6.93753 10.9699 7.05542 10.8186 7.17383 10.6892C7.29277 10.5608 7.4149 10.4537 7.5365 10.3722C7.68411 10.2742 7.83279 10.2108 7.98041 10.1863C8.12643 10.1607 8.27086 10.1741 8.40945 10.23C8.51459 10.271 8.61283 10.3344 8.7015 10.4233C8.78752 10.5064 8.86558 10.6135 8.93355 10.7419L8.93195 10.7408Z" fill="#E9FBF2"/>
<path fill-rule="evenodd" clip-rule="evenodd" d="M22.9625 24.797C23.0668 24.8096 23.1492 24.8173 23.2458 24.8733C23.3375 24.9277 23.4385 25.0243 23.5757 25.2076L23.5807 25.2137L23.6136 25.2713C23.6152 25.2746 23.6169 25.2773 23.6185 25.2823C23.8798 25.9081 23.5033 26.2578 23.119 26.614V26.6157C23.119 26.6157 23.1157 26.619 23.113 26.6206C23.035 26.692 22.9576 26.7655 22.8824 26.8495C22.5948 27.1718 22.2769 27.4457 21.9349 27.679C21.5924 27.9123 21.2268 28.1055 20.8442 28.2686C20.4676 28.4305 20.074 28.5611 19.6694 28.6748C19.2648 28.7868 18.8509 28.8801 18.431 28.9641C17.4835 29.1524 16.1155 29.294 14.5658 29.3686C13.0672 29.44 11.3979 29.4482 9.77023 29.378C8.34352 29.3159 6.94754 29.193 5.72119 28.9954C4.6211 28.8181 3.6577 28.5815 2.93418 28.2779C2.62897 28.1489 2.36328 28.0182 2.12668 27.8793C1.88844 27.7394 1.67874 27.5944 1.48222 27.4391C1.28789 27.2837 1.11058 27.1218 0.936013 26.9472C0.763095 26.7732 0.595117 26.5893 0.419453 26.3933C0.253122 26.2067 0.134549 26.0431 0.0664798 25.8894C-0.00378553 25.7291 -0.0191561 25.5798 0.0242108 25.4288C0.0648329 25.2856 0.158154 25.1659 0.304174 25.0583C0.444156 24.9573 0.637386 24.8656 0.884412 24.7767C1.58597 24.5231 1.86922 23.7886 1.9362 22.7648C2.00481 21.7251 1.85056 20.3884 1.68588 18.9557C1.29997 15.6241 0.858063 11.799 2.96492 9.51649C3.74278 8.67331 4.41524 8.21549 5.05642 7.94815C5.69594 7.67916 6.29978 7.60286 6.93931 7.51997C7.26319 7.47935 7.59585 7.43763 7.94772 7.36462C8.29795 7.29326 8.66794 7.1906 9.06813 7.03031C9.48807 6.86233 9.95962 6.71741 10.4592 6.60103C10.9741 6.48136 11.5175 6.38914 12.0665 6.32875C12.6143 6.26782 13.1699 6.23873 13.7034 6.24476C14.2233 6.24971 14.7245 6.28539 15.1801 6.35675C15.3234 6.37871 15.4524 6.4347 15.5627 6.5121C15.6797 6.59444 15.773 6.70204 15.8367 6.82006C15.8663 6.87605 15.8894 6.93534 15.9053 6.99573C15.9206 7.05501 15.9289 7.11704 15.9289 7.17798C15.9289 7.24824 15.9195 7.31631 15.8976 7.38164C15.8789 7.44531 15.8476 7.50625 15.8059 7.56498C15.7356 7.66434 15.6346 7.75163 15.4963 7.8153C15.375 7.87294 15.224 7.91192 15.0434 7.92564C14.8848 7.93662 14.7009 7.94431 14.4989 7.94925C14.3012 7.95419 14.0866 7.95693 13.8637 7.96023C13.4905 7.96352 13.0952 7.96791 12.717 7.98658C12.3437 8.00524 11.9885 8.03653 11.6932 8.09417C11.2546 8.17981 10.8434 8.28246 10.4685 8.38676C10.0969 8.48941 9.75596 8.59701 9.46172 8.68868H9.46008C9.01213 8.82866 8.66465 8.9379 8.42202 8.967C8.27874 8.98401 8.12943 8.99993 7.98011 9.01366C7.83848 9.02793 7.69246 9.04165 7.55358 9.05428C7.10674 9.09326 6.7351 9.12564 6.36456 9.21787C5.99402 9.30789 5.62238 9.45611 5.17554 9.72509C3.77023 10.5716 3.18395 11.9626 3.0017 13.5826C2.81836 15.2102 3.04397 17.0711 3.25696 18.8437C3.40463 20.059 3.54626 21.2354 3.55285 22.2905C3.55889 23.3489 3.42824 24.281 3.02696 25.0012C2.88368 25.2598 2.77005 25.4168 2.65806 25.5331C2.54772 25.6512 2.44178 25.7258 2.31277 25.8148L2.30948 25.8164C2.27215 25.8428 2.23153 25.8707 2.18816 25.9037C2.39512 26.1277 2.67508 26.3302 3.005 26.5136C3.40024 26.7331 3.86575 26.9231 4.35541 27.0828C4.99493 27.2914 5.67014 27.4468 6.28825 27.5511C6.97279 27.6647 7.58597 27.7147 8.00591 27.7037V27.3008C8.00591 27.0395 8.00427 26.7793 8.00591 26.518C8.00591 26.2567 8.00591 25.9965 8.00756 25.7352V25.6995C8.01085 25.4272 8.01085 25.2373 8.00756 25.1017C8.00427 24.9727 7.99658 24.8964 7.97956 24.8497L7.97792 24.8464C7.97298 24.831 7.9609 24.8124 7.94388 24.7904C7.92192 24.7641 7.89228 24.7311 7.85495 24.6911C7.81158 24.6428 7.76163 24.5868 7.6996 24.5154C7.63867 24.444 7.5706 24.3567 7.48935 24.2475C7.11277 23.7353 6.84818 23.2781 6.65221 22.8784C6.45623 22.4782 6.32833 22.1395 6.22403 21.8607C6.16639 21.7064 6.11643 21.5741 6.06868 21.4687C6.02366 21.3677 5.98139 21.2947 5.93473 21.2524C5.89137 21.2102 5.82879 21.1729 5.76072 21.1372C5.68935 21.0998 5.61305 21.0658 5.53949 21.0345C5.47581 21.0065 5.41323 20.9802 5.35285 20.9505C5.29191 20.9192 5.23592 20.8896 5.18652 20.8539C4.87526 20.6376 4.59969 20.322 4.37243 19.9498C4.13418 19.5606 3.95248 19.1094 3.83885 18.646C3.77023 18.3688 3.72686 18.0861 3.71149 17.8089C3.69612 17.5399 3.7082 17.2753 3.74882 17.0245C3.79384 16.7472 3.87508 16.4892 3.99475 16.2576C4.11003 16.038 4.25934 15.8453 4.44928 15.6883C4.58322 15.578 4.73418 15.4858 4.90381 15.416C5.05312 15.3551 5.21836 15.3117 5.39731 15.2887C5.43958 14.4362 5.58066 13.6331 5.78322 12.9249C6.01488 12.1191 6.32449 11.4329 6.65605 10.9317C6.77407 10.7544 6.89594 10.5974 7.01836 10.4651C7.14297 10.3311 7.26868 10.2208 7.39329 10.1385C7.54754 10.0358 7.70125 9.97047 7.85221 9.94577C8.00317 9.92107 8.15248 9.93479 8.29576 9.99078C8.40445 10.0331 8.506 10.0995 8.59933 10.1901C8.68825 10.2773 8.7673 10.386 8.83757 10.52C9.75266 12.2563 11.1497 12.2552 12.7466 12.2519C13.5135 12.2503 14.3227 12.2503 15.1554 12.4166C15.6363 12.5132 15.9832 12.6406 16.2851 12.8008C16.5838 12.9611 16.839 13.1527 17.1349 13.3734L17.2079 13.4294C17.2919 13.4931 17.3885 13.5617 17.4742 13.6221L17.4775 13.6254C17.7827 13.8417 17.9863 13.9877 18.123 14.2232C18.2553 14.4504 18.319 14.7551 18.3426 15.2815C18.7269 15.3375 19.0321 15.4649 19.2698 15.6488C19.519 15.8404 19.6947 16.094 19.8127 16.391C19.9324 16.6929 19.9867 17.0382 19.9949 17.4071C20.0026 17.7727 19.9653 18.1646 19.9016 18.5615C19.7567 19.4623 19.4257 20.0382 19.0584 20.4224C18.6895 20.8084 18.2883 21.001 18.0017 21.1383C17.9474 21.1646 17.8974 21.1882 17.8584 21.2085C17.8227 21.2272 17.7964 21.2426 17.7821 21.2552C17.7261 21.3051 17.6625 21.4281 17.5988 21.5851H17.5971C17.5302 21.7487 17.4615 21.943 17.3979 22.1297C17.3545 22.2526 17.3139 22.3723 17.2733 22.4799C17.231 22.5902 17.1909 22.6885 17.1519 22.7675C16.8797 23.3137 16.6524 23.681 16.4625 23.9423C16.2725 24.2052 16.1216 24.3611 16.0035 24.4825C15.8915 24.5977 15.8213 24.6707 15.7812 24.8387C15.7378 25.0177 15.7236 25.3053 15.7269 25.8504C15.7302 26.2424 15.7285 26.636 15.7285 27.0301V27.7119C16.4037 27.6686 17.1058 27.5922 17.7904 27.4737C18.4068 27.3661 19.0074 27.2245 19.5563 27.0428C20.0043 26.8934 20.4171 26.7178 20.7761 26.5108C21.0857 26.3319 21.3547 26.1299 21.5715 25.9026L21.5638 25.8965C21.3333 25.7225 21.1439 25.5793 20.971 25.3723C20.798 25.1637 20.6471 24.8947 20.4961 24.4715C19.9669 22.9899 20.2969 20.3884 20.5461 18.4215V18.4166C20.6054 17.9577 20.6581 17.5344 20.6954 17.1595C20.7574 16.5463 20.8167 15.9408 20.8447 15.3513C20.8711 14.7633 20.865 14.1891 20.7948 13.6413C20.7278 13.1061 20.5988 12.5895 20.3776 12.0976C20.158 11.6074 19.8467 11.1408 19.4158 10.7033C19.2571 10.543 19.1452 10.3811 19.0722 10.2274C18.9915 10.0545 18.9602 9.89143 18.9711 9.7498C18.9772 9.67514 18.9948 9.60487 19.0211 9.53955C19.0491 9.47423 19.0864 9.41329 19.1331 9.36059C19.1797 9.30789 19.2341 9.26398 19.295 9.2283C19.356 9.19426 19.424 9.16901 19.4976 9.15529C19.6359 9.12564 19.7995 9.13662 19.9768 9.19262L19.9801 9.19426C20.1371 9.24586 20.3067 9.33589 20.478 9.46819C21.0193 9.88813 21.4195 10.4266 21.7104 11.0338C21.9997 11.6393 22.1819 12.3128 22.289 13.0084C22.3949 13.6869 22.429 14.3857 22.4246 15.0559C22.4196 15.7295 22.3779 16.3756 22.3263 16.9481C22.2873 17.3933 22.2094 17.9472 22.1254 18.5511V18.5544C21.8032 20.8621 21.3783 23.9242 22.6046 24.662C22.7056 24.7229 22.7786 24.7569 22.8352 24.7739C22.8895 24.7926 22.9302 24.7976 22.9642 24.8003L22.9625 24.797ZM7.84672 11.9302C7.48112 12.5341 7.25056 13.0643 7.11223 13.6572C6.95029 14.3527 6.91131 15.1449 6.92229 16.2433C6.93931 17.7233 7.07325 19.4986 7.56511 21.0751C8.04434 22.6138 8.86611 23.9588 10.2555 24.6263C11.3523 25.1522 12.3684 25.1165 13.2462 24.7256C14.2952 24.259 15.1538 23.2896 15.7203 22.1566C15.8883 21.8206 16.0315 21.483 16.1545 21.1295C16.2758 20.7765 16.3785 20.4093 16.4674 20.014C16.5624 19.5891 16.631 19.1533 16.6804 18.7103C16.7303 18.2623 16.7611 17.8122 16.7797 17.3599C16.7874 17.1919 16.7968 17.0376 16.8061 16.8823C16.8561 16.0605 16.9104 15.1707 16.6052 14.8951C15.4134 13.8197 13.9878 13.7994 12.5907 13.7807C10.9197 13.7588 9.28551 13.7374 8.00042 12.0861L7.84617 11.9308L7.84672 11.9302ZM9.549 27.8195L14.1843 27.8288L14.1827 25.9196C13.2522 26.3088 12.5677 26.4982 11.8689 26.4982C11.17 26.4982 10.4855 26.3055 9.55175 25.9289L9.54846 27.8195H9.549ZM21.5139 6.06196C21.2756 6.29691 21.2476 6.56151 21.3399 6.78109C21.3772 6.87002 21.4332 6.95236 21.5034 7.02098C21.5748 7.09124 21.6577 7.14723 21.7494 7.18566C21.9827 7.28502 22.2626 7.26526 22.4883 7.03799C22.7106 6.81073 22.7325 6.51814 22.6332 6.27551C22.5958 6.18383 22.5399 6.09984 22.4712 6.02958C22.4043 5.95931 22.3252 5.90332 22.2363 5.86764C22.0244 5.782 21.7631 5.81604 21.5144 6.06196H21.5139ZM22.799 4.49801C22.872 4.52272 22.945 4.55071 23.0185 4.58365C23.0515 4.59792 23.0822 4.61164 23.1135 4.62702C23.0328 4.3734 22.9675 4.12308 22.9192 3.87551C22.8648 3.58621 22.8352 3.30131 22.8429 3.02738C22.8555 2.57121 22.9625 2.14961 23.2052 1.78566C23.4462 1.42006 23.8216 1.1121 24.369 0.884838L24.5402 0.813474C26.0185 0.194261 28.1847 -0.71315 29.3238 0.934792C29.4204 1.07313 29.5071 1.2164 29.5834 1.35968C29.6597 1.5046 29.7267 1.65062 29.7843 1.79993C29.893 2.09088 29.9649 2.38676 29.988 2.68209C30.0127 2.96535 29.9929 3.24861 29.926 3.52253C29.8546 3.81347 29.73 4.09179 29.545 4.3487C29.371 4.59133 29.1437 4.81695 28.8572 5.01457C28.412 5.32253 27.6121 5.6261 26.9929 5.8627C26.8173 5.93132 26.6553 5.9917 26.5214 6.04605C25.7929 6.34193 24.9558 6.68118 24.2959 6.93589L28.1331 8.36151C28.334 8.43616 28.5333 8.52619 28.7227 8.63379C28.9142 8.74248 29.0932 8.86874 29.2518 9.01805C29.4088 9.16572 29.5444 9.33369 29.6564 9.53132C29.7684 9.72894 29.8557 9.95291 29.9194 10.2142C29.977 10.4508 29.999 10.6995 29.9907 10.9503C29.9814 11.2056 29.9391 11.4636 29.8661 11.7128C29.7991 11.9461 29.7042 12.175 29.5845 12.388C29.4676 12.5966 29.3276 12.7926 29.1657 12.9683C28.9927 13.1533 28.7984 13.3152 28.5805 13.4442C28.3735 13.5688 28.1479 13.6638 27.9053 13.7225C27.695 13.7725 27.4727 13.7955 27.2394 13.7879C27.0171 13.7802 26.7865 13.7428 26.5472 13.6742C25.4751 13.363 24.6786 13.0567 24.1011 12.7174C23.5175 12.3749 23.158 11.9983 22.9697 11.5487C22.7924 11.1238 22.7737 10.6572 22.8687 10.1127C22.9604 9.58841 23.158 8.9906 23.4193 8.2874L23.4066 8.28411C23.3227 8.25611 23.2387 8.22976 23.153 8.20451C23.0257 8.32143 22.884 8.42409 22.7298 8.50478C22.5772 8.58438 22.4152 8.64312 22.2456 8.67276C21.9733 8.72107 21.7197 8.69143 21.4831 8.60744C21.2295 8.51576 20.9979 8.35986 20.7876 8.16718C20.1574 8.38017 19.5316 8.62775 18.9047 8.87368C18.1549 9.17066 17.4044 9.46819 16.6359 9.70753C16.4334 9.76956 16.2577 9.82445 16.0974 9.86178C15.9371 9.90076 15.7971 9.92381 15.6681 9.92381C15.4892 9.92381 15.3431 9.88813 15.2229 9.80579C15.1016 9.72345 15.0099 9.59719 14.943 9.41549C14.8233 9.0949 14.9073 8.85666 15.0906 8.67331C15.2663 8.49929 15.5342 8.37743 15.7971 8.27971C16.8396 7.88941 17.9133 7.4799 18.9887 7.07203L19.5926 6.84147C18.6961 6.4852 17.6877 6.15364 16.7496 5.84568L16.4196 5.73699C16.1133 5.63598 15.8625 5.55364 15.6555 5.4691C15.4453 5.38511 15.2822 5.30112 15.1543 5.19682C15.061 5.12217 14.983 5.0272 14.9254 4.92455C14.8645 4.8186 14.8244 4.70332 14.8074 4.59024C14.7964 4.52491 14.7948 4.45794 14.8013 4.39261C14.8074 4.33058 14.8216 4.268 14.8436 4.20927C14.87 4.14065 14.9073 4.07697 14.9556 4.02098C15.0023 3.96663 15.0599 3.91997 15.1285 3.88264C15.2092 3.83763 15.3058 3.80799 15.4178 3.79701C15.5188 3.78767 15.6324 3.79371 15.7604 3.82171C16.7391 4.0336 18.3437 4.60451 19.6568 5.07111L20.0707 5.21878L20.3863 5.33077C20.439 5.22811 20.4983 5.13479 20.5636 5.0508C20.6399 4.9498 20.7256 4.86087 20.8156 4.78292C20.9496 4.66764 21.0972 4.57761 21.2531 4.51064C21.4167 4.44202 21.5874 4.39701 21.7653 4.37505C21.9316 4.35474 22.1029 4.35638 22.2758 4.3767C22.4498 4.39701 22.626 4.43763 22.7984 4.49637L22.799 4.49801ZM24.8625 4.82464C24.9651 4.81036 25.0848 4.78566 25.2204 4.75327C25.39 4.711 25.5799 4.65501 25.7775 4.59298C26.0998 4.49033 26.4434 4.36572 26.7607 4.2444C27.1779 4.08575 27.5419 3.93315 27.7505 3.83653C27.8701 3.78383 27.97 3.71686 28.0524 3.6422C28.1413 3.56261 28.2094 3.47422 28.2593 3.3809C28.3027 3.29856 28.334 3.21128 28.3543 3.1196C28.3763 3.02464 28.3856 2.92528 28.3823 2.82537C28.3807 2.72601 28.3669 2.62445 28.345 2.52674C28.3214 2.42573 28.2873 2.32747 28.2456 2.23415C28.188 2.10789 28.1133 1.99152 28.0293 1.89325C27.947 1.79829 27.8553 1.72198 27.7554 1.66928C27.6775 1.62702 27.5518 1.61494 27.3931 1.62262C27.2081 1.63196 26.9808 1.67258 26.7393 1.72857C26.4077 1.80817 26.0608 1.91851 25.7479 2.03379C25.3494 2.17981 25.0118 2.33241 24.8378 2.42903C24.6478 2.53662 24.5325 2.68594 24.4722 2.86325C24.4101 3.0455 24.4019 3.25684 24.4315 3.47807C24.4595 3.70368 24.5232 3.94358 24.6044 4.17962C24.6824 4.40359 24.7724 4.62317 24.863 4.82519L24.8625 4.82464ZM24.8954 8.93406C24.7801 9.11631 24.6758 9.3293 24.5951 9.55492C24.5172 9.77615 24.4612 10.0062 24.4398 10.2334C24.4195 10.4607 24.4337 10.6803 24.4991 10.8713C24.5567 11.0376 24.6533 11.1826 24.7977 11.2885C24.9624 11.4098 25.2286 11.5344 25.5179 11.6481C25.9208 11.8051 26.3677 11.9406 26.646 12.0104C26.9029 12.074 27.1472 12.1223 27.3464 12.1377C27.5144 12.152 27.6484 12.1438 27.7274 12.1048C27.8361 12.0521 27.936 11.9741 28.0216 11.8808C28.1117 11.7826 28.188 11.6645 28.2473 11.5372C28.2879 11.4455 28.3219 11.3505 28.3439 11.2506C28.3675 11.154 28.3812 11.0546 28.3829 10.9564C28.3862 10.857 28.3779 10.7588 28.3582 10.6654C28.3395 10.5738 28.3115 10.4865 28.2709 10.4058C28.2226 10.3075 28.1572 10.2175 28.0732 10.1368C27.9937 10.0621 27.8992 9.99682 27.7856 9.94412C27.5913 9.85519 27.2224 9.70149 26.7991 9.5379C26.4769 9.41329 26.1206 9.28264 25.7874 9.17395C25.5838 9.10698 25.3922 9.04934 25.2286 9.00597C25.098 8.97194 24.9843 8.94669 24.8954 8.93461V8.93406ZM17.8496 19.7192C18.1653 19.4953 18.3695 19.184 18.4908 18.8277C18.6555 18.3452 18.6742 17.782 18.6198 17.2374L18.6149 17.1952C18.5726 16.7549 18.5589 16.6177 18.128 16.6413L17.8496 19.7192ZM5.90674 19.7143L5.61579 16.638C5.40719 16.6287 5.29685 16.6396 5.23922 16.6973C5.17718 16.761 5.15687 16.8965 5.12394 17.1348C5.10033 17.3137 5.0899 17.5191 5.091 17.726C5.09265 17.9363 5.10802 18.1476 5.13437 18.3315C5.18871 18.6954 5.27764 18.982 5.41762 19.2137C5.53894 19.4146 5.69759 19.576 5.90619 19.7148L5.90674 19.7143Z" fill="#219653"/>
</g>
<defs>
<clipPath id="clip0_1_644">
<rect width="30" height="30" fill="white"/>
</clipPath>
</defs>
</svg>
