<svg width="50" height="50" viewBox="0 0 50 50" fill="none" xmlns="http://www.w3.org/2000/svg">
<g clip-path="url(#clip0_1_422)">
<mask id="path-1-outside-1_1_422" maskUnits="userSpaceOnUse" x="2.12109" y="-1.01758" width="46" height="52" fill="black">
<rect fill="white" x="2.12109" y="-1.01758" width="46" height="52"/>
<path fill-rule="evenodd" clip-rule="evenodd" d="M3.4779 34.1011C3.49743 33.984 3.61462 33.7886 3.7318 33.6715C3.92712 33.4761 3.96618 33.4761 7.31579 33.5347C9.19079 33.5738 10.8412 33.6519 11.017 33.7105C11.4759 33.8472 11.6322 34.2476 11.5541 35.1363C11.5271 35.4506 11.8401 35.6836 12.1335 35.5676L12.3353 35.4879C13.7025 34.941 14.5619 34.7457 15.9877 34.6969C18.1361 34.609 19.5716 34.9312 21.5931 35.9371C23.1947 36.7476 23.517 36.7965 27.5306 36.9136C29.4447 36.9722 31.2123 37.0601 31.4564 37.109C32.931 37.4019 34.2787 38.3492 35.0111 39.5894C35.099 39.7359 35.4799 39.5797 38.4095 38.1929C40.2259 37.3336 41.9349 36.5621 42.2084 36.4644C42.9603 36.2203 44.308 36.3082 45.0599 36.65C45.8021 36.9918 46.3783 37.4703 46.7689 38.0465C47.1595 38.6324 47.1693 39.0328 46.808 39.3746C46.5638 39.5992 44.4447 40.9761 34.4545 47.4215C31.7396 49.1695 31.1146 49.4722 29.4935 49.8043C28.6049 49.9898 26.9642 50.0386 26.0756 49.9117C25.6263 49.8433 22.9017 49.1207 20.0209 48.3101C15.4053 47.0118 14.3595 46.6827 13.48 46.9347C13.1555 47.0276 12.8537 47.1996 12.4037 47.4312L11.7349 47.7801C11.45 47.9288 11.2551 48.2065 11.2123 48.525C11.1732 48.8668 11.0756 49.1207 10.9193 49.2867C10.7765 49.4419 10.5739 49.5284 10.363 49.5242L7.27673 49.4625C3.61462 49.3844 3.30212 49.3453 3.1361 48.8961C3.04821 48.6617 3.37048 34.5894 3.4779 34.1011ZM9.83239 38.4422C9.86703 37.1992 9.89448 36.2143 9.90696 35.6925C9.91343 35.4218 9.77723 35.2646 9.50666 35.2525C8.34203 35.2006 5.07773 35.1334 5.06969 35.1656C5.05016 35.3219 4.70837 47.7047 4.7279 47.7242C4.73766 47.734 5.83141 47.773 7.15954 47.8121L9.14202 47.8683C9.37891 47.875 9.57603 47.6877 9.58141 47.4508C9.58141 47.2164 9.65954 44.3844 9.75719 41.1617C9.78389 40.1828 9.80969 39.2571 9.83239 38.4422ZM20.9779 37.441C20.1869 37.0699 19.2787 36.7183 18.7318 36.5816C16.9642 36.1422 15.2259 36.2008 13.5463 36.7769C12.9896 36.9625 11.7103 37.5875 11.5345 37.7535C11.49 37.798 11.2915 44.6374 11.2935 45.8885C11.2937 46.0202 11.3657 46.0803 11.4876 46.0306C11.6261 45.9741 11.8284 45.8802 12.0521 45.7711C13.8392 44.8824 14.0638 44.9117 20.6068 46.7867L25.5619 48.2037C25.7407 48.2549 25.9258 48.2808 26.1118 48.2808H27.4427C28.9076 48.2808 29.1322 48.2515 29.9134 48.0172C30.392 47.8707 30.9388 47.6656 31.1341 47.5679C31.7006 47.275 44.972 38.6812 45.0013 38.5738C45.0502 38.4469 44.1713 38.0269 43.7123 37.9586C43.4974 37.9195 43.1361 37.939 42.9017 37.9879C42.6674 38.0465 40.9486 38.8082 39.0834 39.6969L36.2604 41.0311C35.9178 41.193 35.7062 41.545 35.724 41.9234C35.7631 42.4996 35.7435 42.5777 35.4799 42.8707C35.3 43.0691 35.0428 43.1795 34.775 43.1731L30.7142 43.0758C25.3334 42.939 24.8744 42.9097 24.5912 42.6754C24.2689 42.4215 24.2787 41.7476 24.6107 41.484C24.8451 41.2886 24.933 41.2789 27.6869 41.3472C29.2494 41.3765 31.3002 41.4351 32.2572 41.4742C33.4103 41.514 33.8662 41.5471 33.9537 41.3834C34.0166 41.2657 33.8888 41.0461 33.6927 40.6539C33.3314 39.941 32.6966 39.3258 31.9545 38.984C31.3392 38.7008 31.1634 38.691 25.8802 38.4859C23.0677 38.3785 22.8529 38.3297 20.9779 37.441ZM14.9512 17.5292C16.6211 14.1503 19.9023 11.7187 23.6328 11.0839C25.3613 10.791 27.6562 10.9667 29.3164 11.5234C33.4863 12.9199 36.4551 16.3671 37.3144 20.8105C37.4707 21.6113 37.4707 23.9843 37.3144 24.8046C36.8359 27.3535 35.7422 29.4238 33.9453 31.2011C33.4082 31.748 32.6562 32.3925 32.2754 32.6367C27.3437 35.8886 20.9863 35.205 16.9629 30.9667C14.8145 28.7109 13.7305 25.9667 13.7305 22.8027C13.7305 20.8105 14.0918 19.2578 14.9512 17.5292ZM32.9687 15.7421C31.3965 14.1113 29.502 13.0956 27.3047 12.705C26.4746 12.5585 24.3945 12.5878 23.584 12.7636C18.9258 13.7499 15.6055 17.6171 15.3613 22.3242C15.0781 27.7441 19.2383 32.539 24.6289 32.998C29.707 33.4277 34.1992 30.2636 35.5176 25.3417C35.7422 24.4824 35.7715 24.1894 35.7715 22.8027C35.7715 21.4355 35.7422 21.123 35.5176 20.2929C35.0488 18.5253 34.209 17.0312 32.9687 15.7421ZM31.2012 4.34512C31.0452 4.49485 30.957 4.70171 30.957 4.91792V6.75723C30.9668 9.10098 30.9766 9.17911 31.4746 9.36465C31.7773 9.48184 31.9922 9.42325 32.3047 9.14981C32.5195 8.9545 32.5195 8.90567 32.5195 6.767V4.91792C32.5195 4.70171 32.4314 4.49485 32.2754 4.34512C32.1289 4.18887 31.9238 4.10098 31.7383 4.10098C31.5527 4.10098 31.3477 4.18887 31.2012 4.34512ZM18.6523 4.91851C18.6523 4.7023 18.7405 4.49544 18.8965 4.3457C19.043 4.18945 19.248 4.10156 19.4336 4.10156C19.6191 4.10156 19.8242 4.18945 19.9707 4.3457C20.1267 4.49544 20.2148 4.7023 20.2148 4.91851V6.76758V8.62333C20.2148 8.83477 20.1263 9.03654 19.9707 9.17969C19.8242 9.31641 19.6094 9.4043 19.4336 9.4043C19.2578 9.4043 19.043 9.31641 18.8965 9.17969C18.7409 9.03654 18.6523 8.83477 18.6523 8.62333V6.76758V4.91851ZM24.8047 0.815971C24.8047 0.599758 24.8929 0.392899 25.0488 0.243164C25.1953 0.0869141 25.4004 -0.000976562 25.5859 -0.000976562C25.7715 -0.000976562 25.9766 0.0869141 26.123 0.243164C26.279 0.392899 26.3672 0.599758 26.3672 0.815971V4.71582V8.62236C26.3672 8.83379 26.2786 9.03556 26.123 9.17871C25.8105 9.47168 25.3613 9.47168 25.0488 9.17871C24.8932 9.03556 24.8047 8.83379 24.8047 8.62236V4.71582V0.815971ZM25.1465 15.1553C24.8047 15.3408 24.707 15.5459 24.707 16.1221V16.2083C24.707 16.4859 24.5363 16.7349 24.2773 16.835C23.0176 17.3135 22.0703 18.71 22.0703 20.0772C22.0703 21.1221 22.7539 22.3818 23.6133 22.9287C24.2578 23.3486 24.5508 23.4463 25.4199 23.5439C26.2891 23.6514 26.6309 23.7881 26.9824 24.208C28.0078 25.4287 27.1777 27.2451 25.5859 27.2451C24.6094 27.2451 23.8965 26.6104 23.7402 25.5752C23.5938 24.667 22.9199 24.335 22.3535 24.8916C22.0215 25.2236 22.002 25.4775 22.2168 26.3174C22.4902 27.3623 23.4082 28.3779 24.3945 28.7197C24.6973 28.8271 24.707 28.8467 24.707 29.3643C24.707 30.0088 24.8047 30.2041 25.1953 30.3701C25.4297 30.4678 25.5469 30.4678 25.7812 30.3701C26.1719 30.2139 26.2695 30.0088 26.2695 29.3936C26.2695 29.0127 26.3086 28.8857 26.4453 28.8467C28.3496 28.2119 29.4238 26.415 28.9648 24.6084C28.5742 23.1045 27.4902 22.167 25.9082 21.9717C24.9512 21.8447 24.834 21.8057 24.4238 21.5127C23.2227 20.6045 23.6719 18.6611 25.1758 18.2705C26.2402 17.9775 27.4316 18.8857 27.4414 19.999C27.4414 20.4092 27.8906 20.8975 28.2715 20.8975C28.623 20.8975 29.1016 20.4092 29.1016 20.0479C29.1016 19.5107 28.7988 18.6025 28.457 18.0947C28.0371 17.4795 27.5879 17.1279 26.8652 16.835L26.7528 16.7888C26.4871 16.6796 26.307 16.4283 26.2891 16.1416C26.2598 15.5654 26.123 15.292 25.8105 15.1455C25.5176 15.0088 25.4004 15.0186 25.1465 15.1553Z"/>
</mask>
<path fill-rule="evenodd" clip-rule="evenodd" d="M3.4779 34.1011C3.49743 33.984 3.61462 33.7886 3.7318 33.6715C3.92712 33.4761 3.96618 33.4761 7.31579 33.5347C9.19079 33.5738 10.8412 33.6519 11.017 33.7105C11.4759 33.8472 11.6322 34.2476 11.5541 35.1363C11.5271 35.4506 11.8401 35.6836 12.1335 35.5676L12.3353 35.4879C13.7025 34.941 14.5619 34.7457 15.9877 34.6969C18.1361 34.609 19.5716 34.9312 21.5931 35.9371C23.1947 36.7476 23.517 36.7965 27.5306 36.9136C29.4447 36.9722 31.2123 37.0601 31.4564 37.109C32.931 37.4019 34.2787 38.3492 35.0111 39.5894C35.099 39.7359 35.4799 39.5797 38.4095 38.1929C40.2259 37.3336 41.9349 36.5621 42.2084 36.4644C42.9603 36.2203 44.308 36.3082 45.0599 36.65C45.8021 36.9918 46.3783 37.4703 46.7689 38.0465C47.1595 38.6324 47.1693 39.0328 46.808 39.3746C46.5638 39.5992 44.4447 40.9761 34.4545 47.4215C31.7396 49.1695 31.1146 49.4722 29.4935 49.8043C28.6049 49.9898 26.9642 50.0386 26.0756 49.9117C25.6263 49.8433 22.9017 49.1207 20.0209 48.3101C15.4053 47.0118 14.3595 46.6827 13.48 46.9347C13.1555 47.0276 12.8537 47.1996 12.4037 47.4312L11.7349 47.7801C11.45 47.9288 11.2551 48.2065 11.2123 48.525C11.1732 48.8668 11.0756 49.1207 10.9193 49.2867C10.7765 49.4419 10.5739 49.5284 10.363 49.5242L7.27673 49.4625C3.61462 49.3844 3.30212 49.3453 3.1361 48.8961C3.04821 48.6617 3.37048 34.5894 3.4779 34.1011ZM9.83239 38.4422C9.86703 37.1992 9.89448 36.2143 9.90696 35.6925C9.91343 35.4218 9.77723 35.2646 9.50666 35.2525C8.34203 35.2006 5.07773 35.1334 5.06969 35.1656C5.05016 35.3219 4.70837 47.7047 4.7279 47.7242C4.73766 47.734 5.83141 47.773 7.15954 47.8121L9.14202 47.8683C9.37891 47.875 9.57603 47.6877 9.58141 47.4508C9.58141 47.2164 9.65954 44.3844 9.75719 41.1617C9.78389 40.1828 9.80969 39.2571 9.83239 38.4422ZM20.9779 37.441C20.1869 37.0699 19.2787 36.7183 18.7318 36.5816C16.9642 36.1422 15.2259 36.2008 13.5463 36.7769C12.9896 36.9625 11.7103 37.5875 11.5345 37.7535C11.49 37.798 11.2915 44.6374 11.2935 45.8885C11.2937 46.0202 11.3657 46.0803 11.4876 46.0306C11.6261 45.9741 11.8284 45.8802 12.0521 45.7711C13.8392 44.8824 14.0638 44.9117 20.6068 46.7867L25.5619 48.2037C25.7407 48.2549 25.9258 48.2808 26.1118 48.2808H27.4427C28.9076 48.2808 29.1322 48.2515 29.9134 48.0172C30.392 47.8707 30.9388 47.6656 31.1341 47.5679C31.7006 47.275 44.972 38.6812 45.0013 38.5738C45.0502 38.4469 44.1713 38.0269 43.7123 37.9586C43.4974 37.9195 43.1361 37.939 42.9017 37.9879C42.6674 38.0465 40.9486 38.8082 39.0834 39.6969L36.2604 41.0311C35.9178 41.193 35.7062 41.545 35.724 41.9234C35.7631 42.4996 35.7435 42.5777 35.4799 42.8707C35.3 43.0691 35.0428 43.1795 34.775 43.1731L30.7142 43.0758C25.3334 42.939 24.8744 42.9097 24.5912 42.6754C24.2689 42.4215 24.2787 41.7476 24.6107 41.484C24.8451 41.2886 24.933 41.2789 27.6869 41.3472C29.2494 41.3765 31.3002 41.4351 32.2572 41.4742C33.4103 41.514 33.8662 41.5471 33.9537 41.3834C34.0166 41.2657 33.8888 41.0461 33.6927 40.6539C33.3314 39.941 32.6966 39.3258 31.9545 38.984C31.3392 38.7008 31.1634 38.691 25.8802 38.4859C23.0677 38.3785 22.8529 38.3297 20.9779 37.441ZM14.9512 17.5292C16.6211 14.1503 19.9023 11.7187 23.6328 11.0839C25.3613 10.791 27.6562 10.9667 29.3164 11.5234C33.4863 12.9199 36.4551 16.3671 37.3144 20.8105C37.4707 21.6113 37.4707 23.9843 37.3144 24.8046C36.8359 27.3535 35.7422 29.4238 33.9453 31.2011C33.4082 31.748 32.6562 32.3925 32.2754 32.6367C27.3437 35.8886 20.9863 35.205 16.9629 30.9667C14.8145 28.7109 13.7305 25.9667 13.7305 22.8027C13.7305 20.8105 14.0918 19.2578 14.9512 17.5292ZM32.9687 15.7421C31.3965 14.1113 29.502 13.0956 27.3047 12.705C26.4746 12.5585 24.3945 12.5878 23.584 12.7636C18.9258 13.7499 15.6055 17.6171 15.3613 22.3242C15.0781 27.7441 19.2383 32.539 24.6289 32.998C29.707 33.4277 34.1992 30.2636 35.5176 25.3417C35.7422 24.4824 35.7715 24.1894 35.7715 22.8027C35.7715 21.4355 35.7422 21.123 35.5176 20.2929C35.0488 18.5253 34.209 17.0312 32.9687 15.7421ZM31.2012 4.34512C31.0452 4.49485 30.957 4.70171 30.957 4.91792V6.75723C30.9668 9.10098 30.9766 9.17911 31.4746 9.36465C31.7773 9.48184 31.9922 9.42325 32.3047 9.14981C32.5195 8.9545 32.5195 8.90567 32.5195 6.767V4.91792C32.5195 4.70171 32.4314 4.49485 32.2754 4.34512C32.1289 4.18887 31.9238 4.10098 31.7383 4.10098C31.5527 4.10098 31.3477 4.18887 31.2012 4.34512ZM18.6523 4.91851C18.6523 4.7023 18.7405 4.49544 18.8965 4.3457C19.043 4.18945 19.248 4.10156 19.4336 4.10156C19.6191 4.10156 19.8242 4.18945 19.9707 4.3457C20.1267 4.49544 20.2148 4.7023 20.2148 4.91851V6.76758V8.62333C20.2148 8.83477 20.1263 9.03654 19.9707 9.17969C19.8242 9.31641 19.6094 9.4043 19.4336 9.4043C19.2578 9.4043 19.043 9.31641 18.8965 9.17969C18.7409 9.03654 18.6523 8.83477 18.6523 8.62333V6.76758V4.91851ZM24.8047 0.815971C24.8047 0.599758 24.8929 0.392899 25.0488 0.243164C25.1953 0.0869141 25.4004 -0.000976562 25.5859 -0.000976562C25.7715 -0.000976562 25.9766 0.0869141 26.123 0.243164C26.279 0.392899 26.3672 0.599758 26.3672 0.815971V4.71582V8.62236C26.3672 8.83379 26.2786 9.03556 26.123 9.17871C25.8105 9.47168 25.3613 9.47168 25.0488 9.17871C24.8932 9.03556 24.8047 8.83379 24.8047 8.62236V4.71582V0.815971ZM25.1465 15.1553C24.8047 15.3408 24.707 15.5459 24.707 16.1221V16.2083C24.707 16.4859 24.5363 16.7349 24.2773 16.835C23.0176 17.3135 22.0703 18.71 22.0703 20.0772C22.0703 21.1221 22.7539 22.3818 23.6133 22.9287C24.2578 23.3486 24.5508 23.4463 25.4199 23.5439C26.2891 23.6514 26.6309 23.7881 26.9824 24.208C28.0078 25.4287 27.1777 27.2451 25.5859 27.2451C24.6094 27.2451 23.8965 26.6104 23.7402 25.5752C23.5938 24.667 22.9199 24.335 22.3535 24.8916C22.0215 25.2236 22.002 25.4775 22.2168 26.3174C22.4902 27.3623 23.4082 28.3779 24.3945 28.7197C24.6973 28.8271 24.707 28.8467 24.707 29.3643C24.707 30.0088 24.8047 30.2041 25.1953 30.3701C25.4297 30.4678 25.5469 30.4678 25.7812 30.3701C26.1719 30.2139 26.2695 30.0088 26.2695 29.3936C26.2695 29.0127 26.3086 28.8857 26.4453 28.8467C28.3496 28.2119 29.4238 26.415 28.9648 24.6084C28.5742 23.1045 27.4902 22.167 25.9082 21.9717C24.9512 21.8447 24.834 21.8057 24.4238 21.5127C23.2227 20.6045 23.6719 18.6611 25.1758 18.2705C26.2402 17.9775 27.4316 18.8857 27.4414 19.999C27.4414 20.4092 27.8906 20.8975 28.2715 20.8975C28.623 20.8975 29.1016 20.4092 29.1016 20.0479C29.1016 19.5107 28.7988 18.6025 28.457 18.0947C28.0371 17.4795 27.5879 17.1279 26.8652 16.835L26.7528 16.7888C26.4871 16.6796 26.307 16.4283 26.2891 16.1416C26.2598 15.5654 26.123 15.292 25.8105 15.1455C25.5176 15.0088 25.4004 15.0186 25.1465 15.1553Z" fill="#219653"/>
<path d="M3.7318 33.6715L3.37825 33.3179H3.37825L3.7318 33.6715ZM3.4779 34.1011L3.97109 34.1833L3.96898 34.196L3.96622 34.2086L3.4779 34.1011ZM7.31579 33.5347L7.32453 33.0348L7.3262 33.0349L7.31579 33.5347ZM11.017 33.7105L10.8742 34.1897L10.8665 34.1874L10.8588 34.1849L11.017 33.7105ZM12.3353 35.4879L12.521 35.9521L12.5191 35.9528L12.3353 35.4879ZM15.9877 34.6969L16.0081 35.1964L16.0048 35.1966L15.9877 34.6969ZM21.5931 35.9371L21.8159 35.4894L21.8189 35.491L21.5931 35.9371ZM27.5306 36.9136L27.5452 36.4139L27.5459 36.4139L27.5306 36.9136ZM31.4564 37.109L31.359 37.5994L31.3584 37.5993L31.4564 37.109ZM35.0111 39.5894L34.5823 39.8467L34.5806 39.8437L35.0111 39.5894ZM38.4095 38.1929L38.1956 37.741L38.1957 37.741L38.4095 38.1929ZM42.2084 36.4644L42.0402 35.9936L42.047 35.9911L42.054 35.9889L42.2084 36.4644ZM45.0599 36.65L45.2668 36.1948L45.2691 36.1958L45.0599 36.65ZM46.7689 38.0465L47.1828 37.7659L47.1849 37.7691L46.7689 38.0465ZM46.808 39.3746L47.1516 39.7379L47.1465 39.7426L46.808 39.3746ZM34.4545 47.4215L34.7255 47.8416L34.7251 47.8419L34.4545 47.4215ZM29.4935 49.8043L29.3913 49.3148L29.3932 49.3144L29.4935 49.8043ZM26.0756 49.9117L26.0048 50.4067L26.0003 50.406L26.0756 49.9117ZM20.0209 48.3101L20.1563 47.8288L20.1563 47.8288L20.0209 48.3101ZM13.48 46.9347L13.3423 46.454V46.454L13.48 46.9347ZM12.4037 47.4312L12.1724 46.9879L12.1749 46.9866L12.4037 47.4312ZM7.27673 49.4625L7.26673 49.9624L7.26606 49.9624L7.27673 49.4625ZM3.1361 48.8961L3.60427 48.7205L3.6051 48.7227L3.1361 48.8961ZM9.83239 38.4422L10.3322 38.4562L9.83239 38.4422ZM5.06969 35.1656L4.57356 35.1036L4.5773 35.0736L4.58462 35.0443L5.06969 35.1656ZM7.15954 47.8121L7.14537 48.3119L7.14484 48.3119L7.15954 47.8121ZM9.75719 41.1617L10.257 41.1753L10.257 41.1768L9.75719 41.1617ZM18.7318 36.5816L18.8524 36.0964L18.8531 36.0965L18.7318 36.5816ZM20.9779 37.441L21.1903 36.9883L21.192 36.9892L20.9779 37.441ZM13.5463 36.7769L13.7085 37.2499L13.7044 37.2513L13.5463 36.7769ZM11.5345 37.7535L11.181 37.3999L11.186 37.3949L11.1912 37.39L11.5345 37.7535ZM12.0521 45.7711L12.2748 46.2188L12.2713 46.2205L12.0521 45.7711ZM20.6068 46.7867L20.4693 47.2674L20.4691 47.2673L20.6068 46.7867ZM29.9134 48.0172L30.0598 48.4953L30.0571 48.4961L29.9134 48.0172ZM31.1341 47.5679L31.3639 48.0121L31.3578 48.0152L31.1341 47.5679ZM45.0013 38.5738L44.519 38.4422L44.5256 38.4179L44.5347 38.3943L45.0013 38.5738ZM43.7123 37.9586L43.6386 38.4531L43.6307 38.4519L43.6228 38.4505L43.7123 37.9586ZM42.9017 37.9879L42.7805 37.5028L42.7901 37.5004L42.7997 37.4984L42.9017 37.9879ZM39.0834 39.6969L39.2984 40.1482L39.297 40.1489L39.0834 39.6969ZM30.7142 43.0758L30.7022 43.5756L30.7015 43.5756L30.7142 43.0758ZM24.5912 42.6754L24.9007 42.2825L24.91 42.2902L24.5912 42.6754ZM24.6107 41.484L24.9309 41.8682L24.9217 41.8755L24.6107 41.484ZM27.6869 41.3472L27.6775 41.8472L27.6745 41.8471L27.6869 41.3472ZM32.2572 41.4742L32.24 41.9739L32.2368 41.9738L32.2572 41.4742ZM33.9537 41.3834L33.5127 41.1478V41.1478L33.9537 41.3834ZM33.6927 40.6539L34.1387 40.4278L34.14 40.4303L33.6927 40.6539ZM31.9545 38.984L32.1635 38.5298L32.1636 38.5298L31.9545 38.984ZM25.8802 38.4859L25.8993 37.9863L25.8996 37.9863L25.8802 38.4859ZM23.6328 11.0839L23.5489 10.591L23.5493 10.591L23.6328 11.0839ZM14.9512 17.5292L15.3994 17.7508L15.3989 17.7518L14.9512 17.5292ZM29.3164 11.5234L29.1576 11.9975L29.1575 11.9974L29.3164 11.5234ZM37.3144 20.8105L36.8237 20.9062L36.8235 20.9054L37.3144 20.8105ZM37.3144 24.8046L36.823 24.7124L36.8233 24.7111L37.3144 24.8046ZM33.9453 31.2011L33.5885 30.8507L33.5937 30.8456L33.9453 31.2011ZM32.2754 32.6367L32.0001 32.2192L32.0056 32.2157L32.2754 32.6367ZM16.9629 30.9667L17.325 30.6219L17.3255 30.6225L16.9629 30.9667ZM27.3047 12.705L27.3916 12.2126L27.3922 12.2127L27.3047 12.705ZM32.9687 15.7421L33.3287 15.3951L33.3291 15.3955L32.9687 15.7421ZM23.584 12.7636L23.69 13.2523L23.6876 13.2528L23.584 12.7636ZM15.3613 22.3242L15.8607 22.3501L15.8606 22.3503L15.3613 22.3242ZM24.6289 32.998L24.5867 33.4962L24.5865 33.4962L24.6289 32.998ZM35.5176 25.3417L36.0013 25.4682L36.0005 25.4711L35.5176 25.3417ZM35.5176 20.2929L35.0349 20.4235L35.0343 20.4211L35.5176 20.2929ZM30.957 6.75723L30.457 6.75932V6.75723H30.957ZM31.4746 9.36465L31.6492 8.89608L31.6551 8.89837L31.4746 9.36465ZM32.3047 9.14981L32.6411 9.51985L32.6339 9.5261L32.3047 9.14981ZM25.1465 15.1553L24.9079 14.7158L24.9094 14.715L25.1465 15.1553ZM23.6133 22.9287L23.8817 22.5069L23.8862 22.5098L23.6133 22.9287ZM25.4199 23.5439L25.4758 23.047L25.4813 23.0477L25.4199 23.5439ZM26.9824 24.208L26.5996 24.5296L26.599 24.529L26.9824 24.208ZM23.7402 25.5752L24.2339 25.4956L24.2346 25.5006L23.7402 25.5752ZM22.3535 24.8916L21.9999 24.538L22.003 24.535L22.3535 24.8916ZM22.2168 26.3174L21.7331 26.444L21.7324 26.4413L22.2168 26.3174ZM24.3945 28.7197L24.5583 28.2473L24.5617 28.2485L24.3945 28.7197ZM25.1953 30.3701L25.003 30.8317L24.9997 30.8303L25.1953 30.3701ZM25.7812 30.3701L25.5889 29.9085L25.5956 29.9059L25.7812 30.3701ZM26.4453 28.8467L26.6034 29.321L26.5931 29.3245L26.5827 29.3274L26.4453 28.8467ZM28.9648 24.6084L29.4488 24.4827L29.4494 24.4853L28.9648 24.6084ZM25.9082 21.9717L25.8469 22.4679L25.8425 22.4673L25.9082 21.9717ZM24.4238 21.5127L24.1331 21.9197L24.1223 21.9115L24.4238 21.5127ZM25.1758 18.2705L25.3085 18.7526L25.3015 18.7545L25.1758 18.2705ZM27.4414 19.999L27.9414 19.9946V19.999H27.4414ZM28.457 18.0947L28.87 17.8129L28.8718 17.8155L28.457 18.0947ZM26.8652 16.835L26.6774 17.2983L26.6753 17.2975L26.8652 16.835ZM25.8105 15.1455L26.022 14.6924L26.0228 14.6928L25.8105 15.1455ZM25.5619 48.2037L25.4244 48.6845L25.5619 48.2037ZM9.90696 35.6925L9.4071 35.6806L9.90696 35.6925ZM9.50666 35.2525L9.52896 34.753L9.50666 35.2525ZM36.2604 41.0311L36.0467 40.579L36.2604 41.0311ZM11.2935 45.8885L11.7935 45.8877L11.2935 45.8885ZM11.4876 46.0306L11.2987 45.5676L11.4876 46.0306ZM11.7349 47.7801L11.9662 48.2234L11.7349 47.7801ZM9.14202 47.8683L9.15619 47.3685L9.14202 47.8683ZM26.7528 16.7888L26.9428 16.3263L26.7528 16.7888ZM12.1335 35.5676L11.9497 35.1027L12.1335 35.5676ZM4.08536 34.025C4.06155 34.0488 4.02751 34.0921 3.99816 34.1416C3.98428 34.1649 3.97486 34.184 3.9695 34.1966C3.96292 34.2121 3.96724 34.2065 3.97109 34.1833L2.9847 34.0189C3.00959 33.8696 3.08051 33.7284 3.1383 33.631C3.20172 33.5242 3.28487 33.4113 3.37825 33.3179L4.08536 34.025ZM7.30704 34.0347C5.62215 34.0052 4.79481 33.9911 4.35979 34.0075C4.25374 34.0115 4.18009 34.0171 4.12816 34.0233C4.10268 34.0264 4.08465 34.0294 4.07229 34.0318C4.06621 34.033 4.06184 34.0341 4.05893 34.0348C4.05603 34.0355 4.05472 34.0359 4.05473 34.0359C4.08579 34.0261 4.11539 33.995 4.08536 34.025L3.37825 33.3179C3.44588 33.2503 3.5536 33.146 3.75159 33.083C3.90544 33.034 4.09322 33.0169 4.32208 33.0082C4.79282 32.9905 5.65982 33.0057 7.32453 33.0348L7.30704 34.0347ZM10.8588 34.1849C10.8932 34.1963 10.8992 34.1931 10.8252 34.1842C10.7693 34.1776 10.6908 34.1702 10.5895 34.1623C10.3879 34.1467 10.1121 34.1305 9.77989 34.1147C9.11632 34.0833 8.23952 34.0541 7.30537 34.0346L7.3262 33.0349C8.26706 33.0545 9.15295 33.0839 9.82728 33.1159C10.164 33.1318 10.4509 33.1486 10.6668 33.1653C10.7743 33.1737 10.8682 33.1823 10.9435 33.1913C11.0007 33.1981 11.0968 33.2101 11.1751 33.2362L10.8588 34.1849ZM11.056 35.0925C11.0934 34.6667 11.0647 34.438 11.0195 34.3189C10.9914 34.2449 10.9634 34.2163 10.8742 34.1897L11.1597 33.2313C11.5295 33.3415 11.8091 33.5814 11.9544 33.964C12.0825 34.3014 12.0928 34.7172 12.0521 35.1801L11.056 35.0925ZM12.5191 35.9528L12.3174 36.0326L11.9497 35.1027L12.1515 35.0229L12.5191 35.9528ZM16.0048 35.1966C14.642 35.2432 13.8395 35.4247 12.521 35.9521L12.1496 35.0236C13.5655 34.4573 14.4817 34.2481 15.9705 34.1971L16.0048 35.1966ZM21.3704 36.3847C19.4193 35.4139 18.067 35.1122 16.0081 35.1964L15.9672 34.1973C18.2052 34.1057 19.724 34.4485 21.8159 35.4894L21.3704 36.3847ZM27.516 37.4134C25.5232 37.3553 24.3997 37.3136 23.5765 37.1788C22.7174 37.0381 22.1817 36.7953 21.3674 36.3832L21.8189 35.491C22.6061 35.8894 23.0323 36.0763 23.7382 36.192C24.4799 36.3135 25.5243 36.3549 27.5452 36.4139L27.516 37.4134ZM31.3584 37.5993C31.3609 37.5998 31.3538 37.5983 31.3313 37.5955C31.3108 37.593 31.2835 37.59 31.2487 37.5867C31.1792 37.5801 31.0873 37.5727 30.9744 37.5649C30.7491 37.5492 30.4491 37.532 30.0949 37.5143C29.387 37.4791 28.4698 37.4426 27.5153 37.4134L27.5459 36.4139C28.5055 36.4433 29.4292 36.48 30.1446 36.5156C30.502 36.5334 30.8093 36.5509 31.0439 36.5673C31.2618 36.5825 31.4549 36.5988 31.5545 36.6187L31.3584 37.5993ZM34.5806 39.8437C33.9229 38.7301 32.6987 37.8656 31.359 37.5994L31.5538 36.6185C33.1633 36.9383 34.6344 37.9683 35.4416 39.3352L34.5806 39.8437ZM38.6235 38.6449C37.164 39.3357 36.3221 39.7283 35.8347 39.9286C35.5999 40.0251 35.4054 40.0951 35.2498 40.1212C35.1713 40.1343 35.0525 40.1457 34.9244 40.109C34.7697 40.0646 34.6539 39.9659 34.5824 39.8467L35.4398 39.3322C35.3903 39.2496 35.3056 39.178 35.2 39.1477C35.121 39.1251 35.0693 39.1375 35.0846 39.1349C35.1167 39.1295 35.217 39.1013 35.4546 39.0037C35.912 38.8157 36.7254 38.4369 38.1956 37.741L38.6235 38.6449ZM42.3765 36.9353C42.1326 37.0224 40.4521 37.7797 38.6234 38.6449L38.1957 37.741C39.9998 36.8874 41.7373 36.1017 42.0402 35.9936L42.3765 36.9353ZM44.853 37.1052C44.551 36.9679 44.0912 36.8683 43.6017 36.8364C43.1104 36.8044 42.6556 36.8449 42.3628 36.94L42.054 35.9889C42.5131 35.8398 43.1081 35.8022 43.6666 35.8385C44.2269 35.875 44.8169 35.9903 45.2668 36.1948L44.853 37.1052ZM46.3551 38.327C46.0217 37.8353 45.5206 37.4126 44.8508 37.1041L45.2691 36.1958C46.0836 36.5709 46.7349 37.1053 47.1828 37.7659L46.3551 38.327ZM46.4644 39.0114C46.5641 38.9171 46.5719 38.8618 46.5706 38.8162C46.5684 38.7382 46.5277 38.5861 46.3529 38.3238L47.1849 37.7691C47.4007 38.0928 47.5602 38.4339 47.5702 38.788C47.5811 39.1745 47.4132 39.4903 47.1516 39.7378L46.4644 39.0114ZM34.1834 47.0013C39.1788 43.7785 42.2052 41.8235 44.0132 40.6463C44.9175 40.0574 45.5149 39.6645 45.9008 39.4052C46.094 39.2755 46.2315 39.181 46.327 39.1131C46.3747 39.0791 46.4098 39.0533 46.435 39.034C46.4619 39.0134 46.4706 39.0055 46.4694 39.0066L47.1465 39.7426C47.0504 39.831 46.8325 39.9841 46.4584 40.2353C46.0661 40.4989 45.4636 40.8951 44.5588 41.4843C42.7487 42.6629 39.7203 44.6192 34.7255 47.8416L34.1834 47.0013ZM29.3932 49.3144C30.1803 49.1532 30.6988 49.005 31.3472 48.6932C32.013 48.3731 32.8226 47.8775 34.1838 47.0011L34.7251 47.8419C33.3715 48.7134 32.5111 49.2432 31.7805 49.5945C31.0324 49.9541 30.4278 50.1233 29.5938 50.2941L29.3932 49.3144ZM26.1463 49.4167C26.9782 49.5356 28.5603 49.4883 29.3913 49.3148L29.5957 50.2937C28.6494 50.4913 26.9503 50.5417 26.0048 50.4067L26.1463 49.4167ZM20.1563 47.8288C21.5947 48.2335 22.9936 48.6161 24.088 48.9059C25.201 49.2005 25.9601 49.3884 26.1508 49.4174L26.0003 50.406C25.7418 50.3667 24.914 50.159 23.8321 49.8726C22.7318 49.5813 21.3279 49.1973 19.8854 48.7914L20.1563 47.8288ZM13.3423 46.454C13.9082 46.2919 14.4931 46.3362 15.459 46.5532C16.4243 46.7701 17.8588 47.1826 20.1563 47.8288L19.8855 48.7915C17.5674 48.1394 16.1712 47.7381 15.2398 47.5289C14.309 47.3198 13.9312 47.3255 13.6177 47.4153L13.3423 46.454ZM12.1749 46.9866C12.5929 46.7715 12.9566 46.5645 13.3423 46.454L13.6177 47.4153C13.3545 47.4907 13.1146 47.6277 12.6325 47.8758L12.1749 46.9866ZM11.5036 47.3369L12.1724 46.9879L12.635 47.8745L11.9662 48.2234L11.5036 47.3369ZM10.5552 48.944C10.6085 48.8874 10.6828 48.7546 10.7155 48.4682L11.709 48.5818C11.6636 48.979 11.5426 49.354 11.2834 49.6294L10.5552 48.944ZM7.28672 48.9626L10.373 49.0243L10.353 50.0241L7.26673 49.9624L7.28672 48.9626ZM3.6051 48.7227C3.61809 48.7579 3.62286 48.7619 3.61832 48.7555C3.61563 48.7518 3.61174 48.7472 3.60714 48.7429C3.60264 48.7387 3.60007 48.7372 3.60143 48.738C3.61775 48.7482 3.69888 48.7871 3.96274 48.823C4.48369 48.8938 5.44077 48.9232 7.28739 48.9626L7.26606 49.9624C5.45057 49.9236 4.42034 49.8944 3.82802 49.8139C3.53524 49.7741 3.27823 49.7142 3.07483 49.5882C2.83514 49.4397 2.72991 49.2393 2.6671 49.0694L3.6051 48.7227ZM3.96622 34.2086C3.96976 34.1925 3.96371 34.2299 3.95439 34.3768C3.94645 34.502 3.93769 34.6745 3.92829 34.8893C3.9095 35.3183 3.88851 35.9066 3.86656 36.6017C3.82268 37.9914 3.77511 39.802 3.73362 41.6053C3.69214 43.4087 3.65677 45.2034 3.63727 46.5613C3.62751 47.2406 3.62175 47.8089 3.62115 48.2138C3.62084 48.4168 3.62184 48.5758 3.62416 48.6861C3.62534 48.7419 3.62677 48.7809 3.62819 48.8051C3.62893 48.8177 3.62937 48.8211 3.62906 48.8184C3.62892 48.8172 3.62808 48.8098 3.62607 48.7987C3.625 48.7928 3.61937 48.7608 3.60427 48.7205L2.66794 49.0716C2.64193 49.0023 2.63603 48.9363 2.63549 48.9317C2.63284 48.9084 2.63113 48.8846 2.6299 48.8637C2.62739 48.8209 2.62565 48.7674 2.62439 48.7072C2.62183 48.5854 2.62084 48.4176 2.62115 48.2123C2.62176 47.8009 2.6276 47.2276 2.63737 46.547C2.65693 45.1852 2.69237 43.3874 2.73389 41.5823C2.77541 39.7773 2.82306 37.9636 2.86706 36.5701C2.88906 35.8736 2.91019 35.2806 2.92924 34.8456C2.93876 34.6284 2.94785 34.4483 2.95639 34.3136C2.96355 34.2006 2.97261 34.0708 2.98958 33.9937L3.96622 34.2086ZM10.4068 35.7045C10.3943 36.2275 10.3668 37.2138 10.3322 38.4562L9.33259 38.4283C9.36724 37.1847 9.39465 36.2011 9.4071 35.6806L10.4068 35.7045ZM4.58462 35.0443C4.64131 34.8176 4.82427 34.7294 4.83893 34.7217C4.88677 34.6967 4.92789 34.6853 4.94297 34.6812C4.97797 34.6718 5.00726 34.6681 5.01716 34.6668C5.04257 34.6636 5.06701 34.6622 5.08247 34.6614C5.11709 34.6596 5.16099 34.6586 5.20871 34.658C5.3062 34.6568 5.44298 34.657 5.60655 34.6583C5.93478 34.6609 6.38222 34.668 6.86445 34.6776C7.82772 34.6969 8.94012 34.7268 9.52896 34.753L9.48437 35.752C8.90857 35.7263 7.8065 35.6967 6.84446 35.6774C6.36403 35.6678 5.9211 35.6609 5.59862 35.6583C5.43684 35.657 5.30818 35.6569 5.22107 35.6579C5.17648 35.6585 5.14828 35.6593 5.13364 35.6601C5.12447 35.6605 5.12998 35.6605 5.14249 35.6589C5.14594 35.6585 5.17029 35.6556 5.2019 35.6471C5.21529 35.6435 5.2551 35.6325 5.30202 35.608C5.31577 35.6008 5.4982 35.5131 5.55477 35.2869L4.58462 35.0443ZM4.37434 48.0777C4.31411 48.0049 4.25549 47.8881 4.24478 47.8532C4.2403 47.8351 4.23455 47.806 4.23282 47.7949C4.22999 47.7753 4.22893 47.7595 4.22859 47.7544C4.22773 47.7414 4.22746 47.73 4.22735 47.7248C4.22709 47.7124 4.22707 47.6984 4.22711 47.6853C4.22719 47.6581 4.22764 47.6202 4.22836 47.5738C4.22983 47.4804 4.23253 47.345 4.2363 47.1743C4.24383 46.8327 4.25567 46.3461 4.27048 45.763C4.30009 44.5964 4.34161 43.0415 4.38434 41.4825C4.42707 39.9234 4.47102 38.36 4.50551 37.1765C4.52276 36.5848 4.53765 36.0877 4.54885 35.7335C4.55444 35.5565 4.55913 35.4146 4.56275 35.3142C4.5656 35.2348 4.56873 35.1422 4.57356 35.1036L5.56583 35.2276C5.56822 35.2086 5.56639 35.231 5.5621 35.3501C5.55857 35.4483 5.55393 35.5885 5.54835 35.7651C5.53719 36.1181 5.52233 36.6142 5.50509 37.2056C5.47062 38.3884 5.42668 39.9512 5.38396 41.5099C5.34124 43.0685 5.29975 44.6227 5.27016 45.7883C5.25536 46.3712 5.24355 46.8565 5.23605 47.1964C5.2323 47.3665 5.22965 47.4993 5.22824 47.5895C5.22753 47.6349 5.22717 47.6677 5.2271 47.6884C5.22709 47.6935 5.22709 47.6974 5.2271 47.7002C5.22712 47.7033 5.22714 47.7043 5.22713 47.7038C5.22713 47.7035 5.2271 47.7023 5.22703 47.7002C5.22696 47.6985 5.2268 47.6943 5.22642 47.6886C5.22619 47.6851 5.22525 47.6706 5.22255 47.6519C5.22089 47.6413 5.21521 47.6125 5.2108 47.5947C5.20016 47.5601 5.14161 47.4434 5.08145 47.3706L4.37434 48.0777ZM7.14484 48.3119C6.48008 48.2923 5.87345 48.2728 5.43134 48.2568C5.21051 48.2489 5.02956 48.2418 4.90257 48.236C4.83951 48.2332 4.78742 48.2306 4.74968 48.2282C4.73156 48.2271 4.71239 48.2258 4.69553 48.2242C4.68823 48.2235 4.67378 48.2221 4.65738 48.2196C4.65042 48.2186 4.63221 48.2157 4.60982 48.2102C4.59924 48.2076 4.57671 48.2018 4.54927 48.1913C4.53895 48.1873 4.45348 48.1569 4.37434 48.0777L5.08145 47.3706C5.00247 47.2917 4.91728 47.2614 4.90737 47.2576C4.88036 47.2472 4.85837 47.2416 4.84848 47.2391C4.82744 47.234 4.81111 47.2315 4.80655 47.2308C4.79978 47.2298 4.7948 47.2292 4.79279 47.229C4.79045 47.2287 4.78905 47.2286 4.78892 47.2285C4.78876 47.2285 4.79052 47.2287 4.79492 47.229C4.7991 47.2293 4.80465 47.2297 4.81174 47.2301C4.84088 47.2319 4.88622 47.2343 4.94781 47.2371C5.07016 47.2426 5.24748 47.2496 5.46733 47.2575C5.90656 47.2733 6.51087 47.2928 7.17424 47.3123L7.14484 48.3119ZM9.12786 48.3681L7.14537 48.3119L7.1737 47.3123L9.15619 47.3685L9.12786 48.3681ZM10.257 41.1768C10.1591 44.4064 10.0814 47.2263 10.0814 47.4508H9.08141C9.08141 47.2064 9.15998 44.3623 9.25742 41.1466L10.257 41.1768ZM10.3322 38.4562C10.3095 39.271 10.2837 40.1966 10.257 41.1753L9.25738 41.1481C9.28408 40.169 9.30988 39.2431 9.33259 38.4283L10.3322 38.4562ZM18.8531 36.0965C19.4453 36.2446 20.3869 36.6114 21.1903 36.9883L20.7655 37.8937C19.9869 37.5283 19.112 37.1921 18.6105 37.0667L18.8531 36.0965ZM13.384 36.304C15.1592 35.695 16.9959 35.6348 18.8524 36.0964L18.6112 37.0668C16.9325 36.6495 15.2927 36.7065 13.7085 37.2499L13.384 36.304ZM11.1912 37.39C11.2515 37.3331 11.327 37.2832 11.382 37.2485C11.4458 37.2083 11.5214 37.1644 11.6027 37.1194C11.7659 37.0291 11.9679 36.9256 12.1788 36.8229C12.5941 36.6208 13.0773 36.4062 13.3881 36.3026L13.7044 37.2513C13.4586 37.3332 13.0238 37.5238 12.6164 37.7221C12.4158 37.8197 12.2303 37.9151 12.0868 37.9945C12.0148 38.0343 11.9572 38.068 11.9152 38.0945C11.8645 38.1265 11.8615 38.1324 11.8778 38.117L11.1912 37.39ZM10.7935 45.8893C10.7925 45.2543 10.8419 43.2227 10.8968 41.3539C10.9243 40.4173 10.9533 39.5177 10.9782 38.8488C10.9906 38.5147 11.0021 38.2365 11.0119 38.0395C11.0168 37.9417 11.0215 37.8605 11.0258 37.8017C11.0279 37.7732 11.0304 37.744 11.0334 37.7188C11.0347 37.7074 11.0372 37.6875 11.0415 37.6653C11.0434 37.6553 11.0479 37.6332 11.0563 37.6065C11.0604 37.5933 11.0683 37.5698 11.0814 37.542C11.0911 37.5211 11.1207 37.4602 11.181 37.3999L11.8881 38.107C11.948 38.0471 11.9772 37.9868 11.9867 37.9667C11.9994 37.9396 12.0069 37.9171 12.0107 37.905C12.0183 37.8807 12.022 37.8618 12.0232 37.8557C12.026 37.8415 12.0268 37.8327 12.0265 37.8356C12.0261 37.8389 12.0249 37.8509 12.0231 37.8752C12.0197 37.922 12.0155 37.9936 12.0107 38.0895C12.0012 38.28 11.9899 38.5531 11.9775 38.886C11.9527 39.5512 11.9238 40.448 11.8964 41.3832C11.8413 43.258 11.7925 45.2717 11.7935 45.8877L10.7935 45.8893ZM12.2713 46.2205C12.0455 46.3306 11.831 46.4305 11.6766 46.4935L11.2987 45.5676C11.4212 45.5176 11.6114 45.4298 11.8329 45.3217L12.2713 46.2205ZM20.4691 47.2673C17.1747 46.3233 15.5335 45.8636 14.4869 45.739C13.9826 45.679 13.6454 45.7015 13.343 45.7765C13.0285 45.8545 12.7248 45.995 12.2747 46.2188L11.8295 45.3234C12.273 45.1028 12.6676 44.9137 13.1022 44.8059C13.549 44.6951 14.012 44.6754 14.6051 44.746C15.7534 44.8827 17.496 45.3751 20.7445 46.306L20.4691 47.2673ZM25.4244 48.6845L20.4693 47.2674L20.7443 46.306L25.6993 47.723L25.4244 48.6845ZM27.4427 48.7808H26.1118V47.7808H27.4427V48.7808ZM30.0571 48.4961C29.6581 48.6158 29.3717 48.6923 28.9885 48.734C28.62 48.774 28.1703 48.7808 27.4427 48.7808V47.7808C28.18 47.7808 28.575 47.773 28.8804 47.7398C29.171 47.7082 29.3875 47.6529 29.7698 47.5383L30.0571 48.4961ZM31.3578 48.0152C31.1245 48.1318 30.5458 48.3465 30.0598 48.4953L29.7671 47.5391C30.2381 47.3949 30.7531 47.1994 30.9105 47.1207L31.3578 48.0152ZM45.4837 38.7054C45.4571 38.8028 45.4071 38.8667 45.3979 38.8788C45.38 38.9022 45.3636 38.9194 45.355 38.9281C45.3372 38.9463 45.321 38.9602 45.3128 38.9671C45.2946 38.9825 45.2754 38.9972 45.2599 39.0087C45.2271 39.0333 45.1835 39.0643 45.1327 39.0996C45.03 39.1711 44.8827 39.2711 44.6987 39.3944C44.3299 39.6416 43.8052 39.9883 43.1763 40.4012C41.918 41.2273 40.2377 42.3214 38.5411 43.4209C36.8444 44.5204 35.1307 45.626 33.8055 46.4751C33.143 46.8996 32.5768 47.2605 32.1582 47.5246C31.7539 47.7798 31.4592 47.9627 31.3639 48.0121L30.9044 47.1238C30.9039 47.1241 30.9087 47.1216 30.9214 47.1143C30.9331 47.1076 30.9484 47.0987 30.9678 47.0871C31.0065 47.0641 31.0575 47.033 31.1206 46.9941C31.2467 46.9165 31.4166 46.8102 31.6246 46.6789C32.0403 46.4166 32.6042 46.0572 33.266 45.6331C34.5893 44.7852 36.3015 43.6806 37.9972 42.5817C39.693 41.4827 41.3714 40.3899 42.6275 39.5653C43.2557 39.1529 43.7771 38.8082 44.1419 38.5638C44.3247 38.4413 44.4661 38.3453 44.5612 38.279C44.6095 38.2454 44.6421 38.222 44.6613 38.2077C44.6718 38.1999 44.6724 38.199 44.6679 38.2028C44.6666 38.204 44.6556 38.2132 44.6414 38.2276C44.6347 38.2345 44.6197 38.2501 44.6029 38.2722C44.5947 38.2828 44.5453 38.3457 44.519 38.4422L45.4837 38.7054ZM43.7859 37.464C44.0871 37.5089 44.4735 37.6549 44.7627 37.793C44.9104 37.8636 45.058 37.9439 45.1731 38.025C45.2272 38.0632 45.2989 38.1185 45.3593 38.1894C45.3893 38.2245 45.4349 38.2846 45.4667 38.3674C45.5 38.4542 45.5284 38.5962 45.468 38.7533L44.5347 38.3943C44.4804 38.5355 44.5076 38.6594 44.5332 38.726C44.5573 38.7887 44.5886 38.8267 44.5983 38.8381C44.6181 38.8614 44.6256 38.8626 44.597 38.8424C44.5467 38.8069 44.455 38.7543 44.3318 38.6954C44.079 38.5747 43.7964 38.4766 43.6386 38.4531L43.7859 37.464ZM42.7997 37.4984C43.0766 37.4407 43.5056 37.4128 43.8017 37.4666L43.6228 38.4505C43.4892 38.4262 43.1956 38.4374 43.0037 38.4774L42.7997 37.4984ZM38.8683 39.2455C39.8043 38.7995 40.7041 38.3852 41.4004 38.0745C41.7483 37.9192 42.0472 37.7891 42.2753 37.6935C42.4839 37.6061 42.6762 37.5289 42.7805 37.5028L43.023 38.4729C43.0277 38.4718 43.0023 38.4791 42.9267 38.5082C42.8599 38.534 42.7712 38.57 42.6618 38.6158C42.4434 38.7073 42.1521 38.8341 41.8079 38.9877C41.1199 39.2947 40.2277 39.7055 39.2984 40.1482L38.8683 39.2455ZM36.0467 40.579L38.8697 39.2448L39.297 40.1489L36.474 41.4831L36.0467 40.579ZM35.1082 42.5362C35.1723 42.4649 35.2019 42.428 35.2185 42.403C35.2301 42.3856 35.2305 42.3814 35.2312 42.3787C35.2335 42.3699 35.2391 42.3422 35.2394 42.2708C35.2398 42.198 35.2349 42.1013 35.2251 41.9572L36.2228 41.8896C36.2409 42.1565 36.2566 42.4064 36.1997 42.6278C36.1336 42.8849 35.9851 43.0567 35.8515 43.2052L35.1082 42.5362ZM30.7262 42.5759L34.787 42.6732L34.7631 43.6729L30.7022 43.5756L30.7262 42.5759ZM24.91 42.2902C24.9107 42.2908 24.9176 42.3064 25.0212 42.33C25.1469 42.3584 25.3651 42.3866 25.7737 42.4132C26.5839 42.4661 28.0312 42.5074 30.7269 42.5759L30.7015 43.5756C28.0164 43.5074 26.5438 43.4657 25.7085 43.4111C24.915 43.3593 24.5585 43.2973 24.2724 43.0606L24.91 42.2902ZM24.9217 41.8755C24.9188 41.8777 24.9022 41.893 24.8851 41.9347C24.8682 41.9762 24.8565 42.0309 24.8555 42.0912C24.8546 42.1516 24.8647 42.204 24.8789 42.2413C24.8932 42.2789 24.9057 42.2866 24.9006 42.2826L24.2817 43.0681C23.9551 42.8108 23.8505 42.4002 23.8556 42.0755C23.8608 41.7479 23.9791 41.347 24.2998 41.0924L24.9217 41.8755ZM27.6745 41.8471C26.287 41.8126 25.6 41.7989 25.2271 41.8162C25.0398 41.8249 24.9756 41.8403 24.9572 41.8462C24.9538 41.8473 24.9574 41.8462 24.9616 41.8436C24.9621 41.8433 24.9568 41.8464 24.9308 41.8681L24.2906 41.0998C24.3667 41.0365 24.4743 40.9515 24.6487 40.895C24.7988 40.8463 24.9727 40.8269 25.1808 40.8173C25.599 40.7979 26.3329 40.8135 27.6993 40.8474L27.6745 41.8471ZM32.2368 41.9738C31.2845 41.9349 29.2376 41.8764 27.6775 41.8472L27.6963 40.8473C29.2612 40.8767 31.3158 40.9354 32.2776 40.9746L32.2368 41.9738ZM34.3947 41.619C34.2764 41.8405 34.0683 41.9222 33.9415 41.9557C33.8103 41.9903 33.6615 42.0011 33.5184 42.0049C33.2292 42.0127 32.8021 41.9933 32.24 41.9739L32.2744 40.9745C32.8653 40.9949 33.2428 41.0119 33.4917 41.0053C33.6176 41.0019 33.6713 40.9928 33.6862 40.9888C33.7055 40.9837 33.5873 41.0081 33.5127 41.1478L34.3947 41.619ZM34.14 40.4303C34.2282 40.6067 34.325 40.7904 34.383 40.9321C34.4132 41.0059 34.4472 41.1008 34.462 41.204C34.4772 41.3105 34.4774 41.4641 34.3947 41.619L33.5127 41.1478C33.4614 41.2438 33.4692 41.3259 33.4721 41.3458C33.4745 41.3624 33.476 41.3559 33.4576 41.3111C33.4406 41.2694 33.415 41.215 33.3774 41.1394C33.3364 41.0569 33.3004 40.9873 33.2455 40.8775L34.14 40.4303ZM32.1636 38.5298C33.0081 38.9187 33.7264 39.6143 34.1387 40.4278L33.2468 40.8799C32.9364 40.2677 32.3852 39.7328 31.7453 39.4381L32.1636 38.5298ZM25.8996 37.9863C28.5341 38.0886 29.9135 38.1427 30.7083 38.2073C31.1069 38.2397 31.3814 38.2762 31.604 38.329C31.837 38.3842 31.9983 38.4537 32.1635 38.5298L31.7454 39.4382C31.603 39.3726 31.5116 39.3347 31.3735 39.302C31.225 39.2669 31.01 39.2351 30.6273 39.204C29.8596 39.1416 28.5095 39.0884 25.8608 38.9855L25.8996 37.9863ZM21.192 36.9892C22.1351 37.4361 22.6075 37.6447 23.182 37.7675C23.7706 37.8933 24.4797 37.9321 25.8993 37.9863L25.8612 38.9855C24.4683 38.9324 23.6637 38.893 22.973 38.7454C22.2682 38.5947 21.6957 38.3345 20.7638 37.8928L21.192 36.9892ZM23.7167 11.5768C20.1428 12.185 16.9978 14.5167 15.3994 17.7508L14.5029 17.3077C16.2444 13.784 19.6619 11.2524 23.5489 10.591L23.7167 11.5768ZM29.1575 11.9974C27.5759 11.4672 25.3643 11.2976 23.7164 11.5769L23.5493 10.591C25.3584 10.2843 27.7366 10.4663 29.4754 11.0493L29.1575 11.9974ZM36.8235 20.9054C35.9972 16.6327 33.1505 13.3347 29.1576 11.9975L29.4752 11.0493C33.8222 12.5051 36.913 16.1016 37.8054 20.7155L36.8235 20.9054ZM36.8233 24.7111C36.8917 24.3519 36.9316 23.5957 36.9316 22.8002C36.9316 22.0039 36.8916 21.2541 36.8237 20.9062L37.8052 20.7147C37.8936 21.1676 37.9316 22.0048 37.9316 22.8002C37.9316 23.5966 37.8935 24.4371 37.8056 24.8982L36.8233 24.7111ZM33.5937 30.8456C35.3167 29.1413 36.3629 27.1634 36.823 24.7124L37.8059 24.8969C37.309 27.5435 36.1676 29.7062 34.2969 31.5566L33.5937 30.8456ZM32.0056 32.2157C32.3413 32.0005 33.0633 31.3856 33.5886 30.8508L34.302 31.5515C33.7531 32.1103 32.9712 32.7845 32.5452 33.0576L32.0056 32.2157ZM17.3255 30.6225C21.1785 34.6813 27.2664 35.3407 32.0001 32.2192L32.5506 33.0541C27.4211 36.4365 20.7941 35.7288 16.6003 31.311L17.3255 30.6225ZM14.2305 22.8027C14.2305 25.841 15.2669 28.4609 17.325 30.6219L16.6008 31.3116C14.362 28.9608 13.2305 26.0925 13.2305 22.8027H14.2305ZM15.3989 17.7518C14.5748 19.4094 14.2305 20.8857 14.2305 22.8027H13.2305C13.2305 20.7353 13.6088 19.1061 14.5035 17.3066L15.3989 17.7518ZM27.3922 12.2127C29.695 12.6221 31.6844 13.6895 33.3287 15.3951L32.6088 16.0892C31.1086 14.5331 29.309 13.5692 27.2172 13.1973L27.3922 12.2127ZM23.478 12.275C23.9351 12.1759 24.7 12.1246 25.4294 12.1135C26.1601 12.1025 26.9273 12.1307 27.3916 12.2126L27.2178 13.1974C26.852 13.1329 26.1642 13.1025 25.4446 13.1134C24.7238 13.1243 24.0434 13.1756 23.69 13.2523L23.478 12.275ZM14.862 22.2983C15.118 17.3624 18.6031 13.3072 23.4804 12.2745L23.6876 13.2528C19.2484 14.1927 16.0929 17.8719 15.8607 22.3501L14.862 22.2983ZM24.5865 33.4962C18.9253 33.0142 14.5648 27.9856 14.862 22.2981L15.8606 22.3503C15.5914 27.5026 19.5513 32.0639 24.6713 32.4998L24.5865 33.4962ZM36.0005 25.4711C34.6197 30.6263 29.9068 33.9464 24.5867 33.4962L24.6711 32.4998C29.5073 32.909 33.7787 29.901 35.0346 25.2124L36.0005 25.4711ZM36.2715 22.8027C36.2715 23.4935 36.2645 23.9373 36.2263 24.3197C36.187 24.712 36.116 25.0293 36.0013 25.4682L35.0338 25.2153C35.1437 24.7948 35.1997 24.5359 35.2312 24.2202C35.2638 23.8946 35.2715 23.4986 35.2715 22.8027H36.2715ZM36.0002 20.1623C36.2413 21.0533 36.2715 21.4156 36.2715 22.8027H35.2715C35.2715 21.4554 35.2431 21.1927 35.0349 20.4235L36.0002 20.1623ZM33.3291 15.3955C34.629 16.7466 35.5107 18.3162 36.0009 20.1647L35.0343 20.4211C34.587 18.7344 33.789 17.3158 32.6084 16.0888L33.3291 15.3955ZM30.457 6.75723V4.91792H31.457V6.75723H30.457ZM31.3001 9.83319C31.1839 9.78992 30.9914 9.71964 30.8341 9.56478C30.6626 9.39579 30.5848 9.18424 30.5421 8.96661C30.4644 8.57092 30.4618 7.89945 30.457 6.75932L31.457 6.75515C31.462 7.95876 31.4692 8.49823 31.5233 8.77393C31.5465 8.89199 31.5652 8.88125 31.5359 8.85234C31.5209 8.83755 31.5163 8.84661 31.6492 8.89611L31.3001 9.83319ZM32.6339 9.5261C32.4554 9.68234 32.2537 9.82433 32.0126 9.88743C31.7535 9.95522 31.514 9.91607 31.2941 9.83094L31.6551 8.89837C31.7379 8.93043 31.7572 8.92057 31.7594 8.92001C31.7795 8.91475 31.8415 8.89072 31.9754 8.77352L32.6339 9.5261ZM33.0195 6.767C33.0195 7.82056 33.0201 8.39883 32.9907 8.73117C32.9759 8.89892 32.95 9.05993 32.8829 9.20538C32.8078 9.36801 32.702 9.46434 32.641 9.51978L31.9684 8.77984C32.0148 8.73762 31.9896 8.75461 31.9749 8.78632C31.9682 8.80085 31.9826 8.77936 31.9946 8.64316C32.019 8.36759 32.0195 7.85211 32.0195 6.767H33.0195ZM33.0195 4.91792V6.767H32.0195V4.91792H33.0195ZM31.7383 3.60098C32.0705 3.60098 32.4051 3.75244 32.6402 4.00315L31.9106 4.6871C31.8845 4.65919 31.8518 4.63629 31.8173 4.62087C31.7822 4.60514 31.7538 4.60098 31.7383 4.60098V3.60098ZM30.8364 4.00315C31.0714 3.75244 31.406 3.60098 31.7383 3.60098V4.60098C31.7228 4.60098 31.6944 4.60514 31.6593 4.62087C31.6248 4.63629 31.5921 4.65919 31.5659 4.6871L30.8364 4.00315ZM19.4336 4.60156C19.4181 4.60156 19.3897 4.60572 19.3546 4.62145C19.3201 4.63687 19.2874 4.65977 19.2613 4.68768L18.5317 4.00373C18.7668 3.75302 19.1014 3.60156 19.4336 3.60156V4.60156ZM19.6059 4.68768C19.5798 4.65977 19.5471 4.63687 19.5126 4.62145C19.4775 4.60572 19.4491 4.60156 19.4336 4.60156V3.60156C19.7658 3.60156 20.1004 3.75302 20.3355 4.00373L19.6059 4.68768ZM19.7148 6.76758V4.91851H20.7148V6.76758H19.7148ZM19.7148 8.62333V6.76758H20.7148V8.62333H19.7148ZM19.4336 8.9043C19.4429 8.9043 19.4751 8.90072 19.5213 8.88155C19.566 8.86296 19.6043 8.83772 19.6295 8.81416L20.3119 9.54522C20.0827 9.75914 19.7489 9.9043 19.4336 9.9043V8.9043ZM19.2376 8.81416C19.2629 8.83772 19.3012 8.86296 19.3459 8.88155C19.3921 8.90072 19.4243 8.9043 19.4336 8.9043V9.9043C19.1183 9.9043 18.7845 9.75914 18.5553 9.54522L19.2376 8.81416ZM19.1523 6.76758V8.62333H18.1523V6.76758H19.1523ZM19.1523 4.91851V6.76758H18.1523V4.91851H19.1523ZM25.5859 0.499023C25.5704 0.499023 25.5421 0.503185 25.5069 0.518909C25.4725 0.534328 25.4398 0.557232 25.4136 0.585136L24.6841 -0.0988083C24.9191 -0.349522 25.2537 -0.500977 25.5859 -0.500977V0.499023ZM25.7583 0.585136C25.7321 0.557232 25.6994 0.534328 25.665 0.518909C25.6298 0.503185 25.6014 0.499023 25.5859 0.499023V-0.500977C25.9182 -0.500977 26.2528 -0.349522 26.4878 -0.0988083L25.7583 0.585136ZM25.8672 4.71582V0.815971H26.8672V4.71582H25.8672ZM25.8672 8.62236V4.71582H26.8672V8.62236H25.8672ZM25.3908 8.81394C25.511 8.9266 25.6609 8.9266 25.7811 8.81394L26.465 9.54348C25.9602 10.0168 25.2117 10.0168 24.7069 9.54348L25.3908 8.81394ZM25.3047 4.71582V8.62236H24.3047V4.71582H25.3047ZM25.3047 0.815971V4.71582H24.3047V0.815971H25.3047ZM24.207 16.1221C24.207 15.8222 24.2293 15.5343 24.3441 15.2839C24.4722 15.0043 24.6821 14.8384 24.9079 14.7158L25.385 15.5947C25.269 15.6577 25.2592 15.6871 25.2531 15.7005C25.2336 15.743 25.207 15.8457 25.207 16.1221H24.207ZM24.207 16.2083V16.1221H25.207V16.2083H24.207ZM21.5703 20.0772C21.5703 18.5078 22.6409 16.9217 24.0998 16.3675L24.4549 17.3024C23.3943 17.7052 22.5703 18.9121 22.5703 20.0772H21.5703ZM23.3448 23.3505C22.8263 23.0205 22.3878 22.4964 22.0799 21.9278C21.7716 21.3586 21.5703 20.7009 21.5703 20.0772H22.5703C22.5703 20.4983 22.7108 20.993 22.9592 21.4516C23.2079 21.9108 23.5409 22.29 23.8817 22.5069L23.3448 23.3505ZM25.3641 24.0408C24.923 23.9913 24.5877 23.938 24.2716 23.8306C23.9507 23.7217 23.6754 23.5659 23.3403 23.3476L23.8862 22.5098C24.1957 22.7114 24.3892 22.8145 24.5931 22.8837C24.8019 22.9546 25.0477 22.999 25.4757 23.0471L25.3641 24.0408ZM26.599 24.529C26.464 24.3677 26.3524 24.2832 26.2014 24.2197C26.0303 24.1477 25.7851 24.0929 25.3586 24.0402L25.4813 23.0477C25.9239 23.1024 26.2841 23.1696 26.5891 23.2979C26.9142 23.4346 27.1493 23.6284 27.3658 23.887L26.599 24.529ZM25.5859 26.7451C26.7435 26.7451 27.3578 25.4322 26.5996 24.5296L27.3653 23.8864C28.6579 25.4252 27.612 27.7451 25.5859 27.7451V26.7451ZM24.2346 25.5006C24.2981 25.9211 24.4686 26.2273 24.6901 26.4268C24.9101 26.625 25.21 26.7451 25.5859 26.7451V27.7451C24.9853 27.7451 24.4405 27.5479 24.0208 27.1698C23.6027 26.7932 23.3386 26.2644 23.2458 25.6498L24.2346 25.5006ZM22.003 24.535C22.3989 24.146 22.9324 23.9926 23.4254 24.2356C23.8798 24.4596 24.1456 24.9485 24.2339 25.4956L23.2466 25.6548C23.1884 25.2936 23.044 25.1625 22.9833 25.1326C22.9571 25.1197 22.9324 25.1159 22.8993 25.1234C22.862 25.1319 22.7933 25.1604 22.704 25.2482L22.003 24.535ZM21.7324 26.4413C21.6267 26.028 21.5536 25.6753 21.5822 25.3678C21.616 25.0051 21.7818 24.7562 22 24.538L22.7071 25.2452C22.5932 25.359 22.5833 25.4031 22.5779 25.4604C22.5675 25.5727 22.5921 25.767 22.7012 26.1935L21.7324 26.4413ZM24.2308 29.1922C23.0793 28.7931 22.0467 27.6425 21.7331 26.444L22.7005 26.1908C22.9337 27.0821 23.7371 27.9627 24.5582 28.2473L24.2308 29.1922ZM24.207 29.3643C24.207 29.2304 24.2062 29.1516 24.2021 29.0972C24.2003 29.0721 24.1984 29.0628 24.1985 29.0631C24.1987 29.0642 24.2023 29.0814 24.2145 29.1065C24.2277 29.1338 24.2469 29.1617 24.2714 29.1864C24.2945 29.2097 24.3144 29.2222 24.3217 29.2263C24.3276 29.2297 24.3256 29.2279 24.3074 29.2206C24.2892 29.2132 24.265 29.2043 24.2273 29.1909L24.5617 28.2485C24.6611 28.2838 24.9681 28.369 25.1141 28.6699C25.1763 28.7981 25.1924 28.9289 25.1994 29.0234C25.2067 29.1216 25.207 29.2394 25.207 29.3643H24.207ZM24.9997 30.8303C24.7518 30.7249 24.5037 30.5701 24.3553 30.2658C24.2269 30.0026 24.207 29.6881 24.207 29.3643H25.207C25.207 29.685 25.236 29.7904 25.2541 29.8274C25.2575 29.8343 25.2592 29.8371 25.2683 29.8445C25.2828 29.8562 25.3161 29.8782 25.3909 29.91L24.9997 30.8303ZM25.9736 30.8317C25.8336 30.89 25.6737 30.9434 25.4883 30.9434C25.3028 30.9434 25.143 30.89 25.003 30.8317L25.3876 29.9086C25.482 29.9479 25.4979 29.9434 25.4883 29.9434C25.4786 29.9434 25.4946 29.9479 25.5889 29.9086L25.9736 30.8317ZM26.7695 29.3936C26.7695 29.7048 26.7494 30.0148 26.6198 30.2761C26.4705 30.5773 26.2219 30.7324 25.9669 30.8344L25.5956 29.9059C25.6673 29.8772 25.6988 29.8566 25.7117 29.8463C25.7196 29.8401 25.7209 29.838 25.7239 29.8318C25.7408 29.7977 25.7695 29.6975 25.7695 29.3936H26.7695ZM26.5827 29.3274C26.6146 29.3183 26.668 29.2952 26.7172 29.2451C26.7635 29.1978 26.7794 29.1536 26.7825 29.1438C26.7847 29.137 26.78 29.1493 26.7759 29.1966C26.7719 29.2421 26.7695 29.3052 26.7695 29.3936H25.7695C25.7695 29.2063 25.7765 29.0071 25.8298 28.8401C25.8597 28.7461 25.911 28.639 26.0031 28.545C26.0981 28.4482 26.2077 28.3946 26.308 28.3659L26.5827 29.3274ZM29.4494 24.4853C29.9811 26.5778 28.7237 28.6143 26.6034 29.321L26.2872 28.3723C27.9755 27.8096 28.8666 26.2523 28.4802 24.7315L29.4494 24.4853ZM25.9695 21.4754C27.7489 21.6951 29.0051 22.7744 29.4488 24.4827L28.4809 24.7341C28.1434 23.4346 27.2316 22.6389 25.8469 22.4679L25.9695 21.4754ZM24.7144 21.1058C24.9078 21.2439 24.9872 21.289 25.1094 21.327C25.261 21.3741 25.484 21.411 25.974 21.476L25.8425 22.4673C25.3753 22.4054 25.0613 22.3593 24.8125 22.2819C24.5343 22.1954 24.35 22.0744 24.1332 21.9196L24.7144 21.1058ZM25.3015 18.7545C24.1559 19.052 23.8952 20.4861 24.7254 21.1139L24.1223 21.9115C22.5502 20.7228 23.1879 18.2703 25.0501 17.7866L25.3015 18.7545ZM26.9414 20.0034C26.9381 19.6273 26.7326 19.258 26.4009 19.005C26.069 18.7519 25.6634 18.6549 25.3085 18.7526L25.0431 17.7884C25.7526 17.5931 26.475 17.8038 27.0073 18.2099C27.5399 18.616 27.9349 19.2575 27.9414 19.9946L26.9414 20.0034ZM28.2715 21.3975C27.8848 21.3975 27.5538 21.1662 27.3461 20.9411C27.1337 20.7108 26.9414 20.3708 26.9414 19.999H27.9414C27.9414 20.0374 27.9737 20.1466 28.0811 20.263C28.1292 20.3151 28.1788 20.3531 28.2205 20.3758C28.264 20.3995 28.2811 20.3975 28.2715 20.3975V21.3975ZM29.6016 20.0479C29.6016 20.4187 29.3784 20.7506 29.1758 20.9578C28.9753 21.1628 28.646 21.3975 28.2715 21.3975V20.3975C28.2489 20.3975 28.2614 20.4031 28.3101 20.3765C28.3549 20.3521 28.4087 20.3119 28.4609 20.2585C28.513 20.2053 28.5531 20.1495 28.5779 20.1019C28.6046 20.0507 28.6016 20.0328 28.6016 20.0479H29.6016ZM28.8718 17.8155C29.0758 18.1185 29.2545 18.5175 29.3821 18.9032C29.5084 19.2847 29.6016 19.7035 29.6016 20.0479H28.6016C28.6016 19.8551 28.5433 19.5513 28.4328 19.2174C28.3237 18.8878 28.1801 18.5787 28.0422 18.3739L28.8718 17.8155ZM27.0531 16.3716C27.8603 16.6988 28.3906 17.1105 28.87 17.8129L28.0441 18.3766C27.6836 17.8485 27.3155 17.557 26.6774 17.2983L27.0531 16.3716ZM26.9428 16.3263L27.0552 16.3725L26.6753 17.2975L26.5628 17.2513L26.9428 16.3263ZM26.0228 14.6928C26.2756 14.8113 26.4757 14.9955 26.606 15.2644C26.7258 15.5117 26.7725 15.8022 26.7884 16.1162L25.7897 16.167C25.7764 15.9048 25.74 15.7705 25.7061 15.7005C25.6825 15.6519 25.658 15.6262 25.5983 15.5982L26.0228 14.6928ZM24.9094 14.715C25.0506 14.639 25.2304 14.5535 25.4514 14.548C25.6692 14.5426 25.8591 14.6164 26.022 14.6924L25.5991 15.5986C25.469 15.5379 25.4538 15.5483 25.4764 15.5477C25.502 15.5471 25.4963 15.5348 25.3835 15.5955L24.9094 14.715ZM25.207 16.2083C25.207 16.6925 24.9092 17.1269 24.4575 17.3014L24.0971 16.3686C24.1634 16.343 24.207 16.2793 24.207 16.2083H25.207ZM24.7103 9.54668C24.4518 9.30885 24.3047 8.97363 24.3047 8.62236H25.3047C25.3047 8.69395 25.3347 8.76227 25.3874 8.81075L24.7103 9.54668ZM26.8672 8.62236C26.8672 8.97363 26.7201 9.30885 26.4616 9.54668L25.7845 8.81075C25.8372 8.76227 25.8672 8.69395 25.8672 8.62236H26.8672ZM26.4693 -0.117531C26.7235 0.126492 26.8672 0.463612 26.8672 0.815971H25.8672C25.8672 0.735909 25.8345 0.659306 25.7768 0.603859L26.4693 -0.117531ZM25.3951 0.603859C25.3373 0.659306 25.3047 0.735909 25.3047 0.815971H24.3047C24.3047 0.463612 24.4484 0.126492 24.7026 -0.117531L25.3951 0.603859ZM32.0195 4.91792C32.0195 4.83786 31.9869 4.76126 31.9291 4.70582L32.6217 3.98443C32.8758 4.22844 33.0195 4.56557 33.0195 4.91792H32.0195ZM18.558 9.54765C18.2994 9.30982 18.1523 8.97461 18.1523 8.62333H19.1523C19.1523 8.69493 19.1823 8.76325 19.235 8.81172L18.558 9.54765ZM35.8503 43.2064C35.5729 43.5126 35.1761 43.6828 34.7631 43.6729L34.787 42.6732C34.9095 42.6762 35.0271 42.6257 35.1094 42.5349L35.8503 43.2064ZM25.6993 47.723C25.8335 47.7614 25.9723 47.7808 26.1118 47.7808V48.7808C25.8793 48.7808 25.6479 48.7484 25.4244 48.6845L25.6993 47.723ZM9.4071 35.6806C9.40838 35.627 9.39432 35.6602 9.43877 35.7097C9.45958 35.7329 9.48172 35.7457 9.49562 35.7513C9.50763 35.7562 9.50648 35.753 9.48437 35.752L9.52896 34.753C9.75606 34.7632 10.0012 34.8394 10.1826 35.0414C10.3612 35.2401 10.412 35.4873 10.4068 35.7045L9.4071 35.6806ZM36.474 41.4831C36.314 41.5587 36.2152 41.7232 36.2234 41.9L35.2245 41.9468C35.1973 41.3667 35.5217 40.8272 36.0467 40.579L36.474 41.4831ZM11.7935 45.8877C11.7935 45.8845 11.7942 45.741 11.6475 45.6295C11.4832 45.5047 11.3226 45.5579 11.2987 45.5676L11.6766 46.4935C11.5307 46.553 11.2732 46.601 11.0424 46.4257C10.8291 46.2636 10.7937 46.0242 10.7935 45.8893L11.7935 45.8877ZM19.2428 4.7064C19.185 4.76184 19.1523 4.83845 19.1523 4.91851H18.1523C18.1523 4.56615 18.296 4.22903 18.5502 3.98501L19.2428 4.7064ZM11.9662 48.2234C11.8254 48.2969 11.729 48.4342 11.7078 48.5917L10.7167 48.4583C10.7813 47.9788 11.0747 47.5606 11.5036 47.3369L11.9662 48.2234ZM9.15619 47.3685C9.11594 47.3673 9.08246 47.3991 9.08154 47.4394L10.0813 47.4621C10.0696 47.9762 9.64187 48.3826 9.12786 48.3681L9.15619 47.3685ZM26.5628 17.2513C26.12 17.0694 25.8199 16.6506 25.79 16.1728L26.7881 16.1104C26.7941 16.206 26.8541 16.2899 26.9428 16.3263L26.5628 17.2513ZM20.317 3.98501C20.5712 4.22903 20.7148 4.56615 20.7148 4.91851H19.7148C19.7148 4.83845 19.6822 4.76184 19.6244 4.7064L20.317 3.98501ZM11.2873 49.6252C11.0474 49.8859 10.7072 50.0312 10.353 50.0241L10.373 49.0243C10.4406 49.0257 10.5056 48.9979 10.5513 48.9482L11.2873 49.6252ZM31.5474 4.70582C31.4897 4.76126 31.457 4.83786 31.457 4.91792H30.457C30.457 4.56557 30.6007 4.22844 30.8549 3.98443L31.5474 4.70582ZM20.7148 8.62333C20.7148 8.97461 20.5677 9.30982 20.3092 9.54765L19.6322 8.81172C19.6849 8.76325 19.7148 8.69493 19.7148 8.62333H20.7148ZM12.0522 35.179C12.057 35.1234 12.0016 35.0821 11.9497 35.1027L12.3174 36.0326C11.6786 36.2851 10.9972 35.7779 11.0559 35.0936L12.0522 35.179Z" fill="#219653" mask="url(#path-1-outside-1_1_422)"/>
</g>
<defs>
<clipPath id="clip0_1_422">
<rect width="50" height="50" fill="white"/>
</clipPath>
</defs>
</svg>
