<svg width="15" height="16" viewBox="0 0 15 16" fill="none" xmlns="http://www.w3.org/2000/svg">
<path d="M10.7167 8.55073C12.5429 8.55073 14.0275 10.0162 14.0275 11.8188C14.0275 13.6205 12.5429 15.087 10.7167 15.087C8.89047 15.087 7.40588 13.6205 7.40588 11.8188C7.40588 10.0162 8.89047 8.55073 10.7167 8.55073ZM10.7167 10.0836C9.74664 10.0836 8.9588 10.8613 8.9588 11.8188C8.9588 12.7754 9.74664 13.5541 10.7167 13.5541C11.6867 13.5541 12.4746 12.7754 12.4746 11.8188C12.4746 10.8613 11.6867 10.0836 10.7167 10.0836ZM7.397 11.0521C7.8256 11.0521 8.17346 11.3955 8.17346 11.8185C8.17346 12.2416 7.8256 12.585 7.397 12.585H1.03109C0.602484 12.585 0.254631 12.2416 0.254631 11.8185C0.254631 11.3955 0.602484 11.0521 1.03109 11.0521H7.397ZM3.56472 0.126953C5.39094 0.126953 6.87553 1.59341 6.87553 3.39506C6.87553 5.19672 5.39094 6.66318 3.56472 6.66318C1.73953 6.66318 0.253906 5.19672 0.253906 3.39506C0.253906 1.59341 1.73953 0.126953 3.56472 0.126953ZM3.56472 1.65984C2.5957 1.65984 1.80682 2.43854 1.80682 3.39506C1.80682 4.35159 2.5957 5.13029 3.56472 5.13029C4.53477 5.13029 5.32262 4.35159 5.32262 3.39506C5.32262 2.43854 4.53477 1.65984 3.56472 1.65984ZM13.2514 2.62883C13.68 2.62883 14.0278 2.97219 14.0278 3.39527C14.0278 3.81835 13.68 4.16171 13.2514 4.16171H6.88442C6.45581 4.16171 6.10796 3.81835 6.10796 3.39527C6.10796 2.97219 6.45581 2.62883 6.88442 2.62883H13.2514Z" fill="white"/>
</svg>
