<svg width="108" height="19" viewBox="0 0 108 19" fill="none" xmlns="http://www.w3.org/2000/svg">
<path fill-rule="evenodd" clip-rule="evenodd" d="M8.99999 0.369141C6.96385 0.369141 6.77134 3.91312 5.55911 5.16527C4.34688 6.41742 0.578199 4.98574 0.0545867 7.20825C-0.467925 9.4319 2.92235 10.1864 3.34036 12.0941C3.76057 14.0019 1.68922 16.6823 3.45916 18.0163C5.2291 19.3491 7.13435 16.3324 8.99999 16.3324C10.8656 16.3324 12.7709 19.3491 14.5408 18.0163C16.3108 16.6823 14.2405 14.0019 14.6596 12.0941C15.0787 10.1864 18.4679 9.4319 17.9454 7.20825C17.4229 4.98574 13.6531 6.41742 12.442 5.16527C11.2297 3.91312 11.0361 0.369141 8.99999 0.369141Z" fill="#F3BE00"/>
<path fill-rule="evenodd" clip-rule="evenodd" d="M31.5 0.369141C29.4638 0.369141 29.2713 3.91312 28.0591 5.16527C26.8469 6.41742 23.0782 4.98574 22.5546 7.20825C22.0321 9.4319 25.4224 10.1864 25.8404 12.0941C26.2606 14.0019 24.1892 16.6823 25.9592 18.0163C27.7291 19.3491 29.6343 16.3324 31.5 16.3324C33.3656 16.3324 35.2709 19.3491 37.0408 18.0163C38.8108 16.6823 36.7405 14.0019 37.1596 12.0941C37.5787 10.1864 40.9679 9.4319 40.4454 7.20825C39.9229 4.98574 36.1531 6.41742 34.942 5.16527C33.7297 3.91312 33.5361 0.369141 31.5 0.369141Z" fill="#F3BE00"/>
<path fill-rule="evenodd" clip-rule="evenodd" d="M54 0.369141C51.9638 0.369141 51.7713 3.91312 50.5591 5.16527C49.3469 6.41742 45.5782 4.98574 45.0546 7.20825C44.5321 9.4319 47.9224 10.1864 48.3404 12.0941C48.7606 14.0019 46.6892 16.6823 48.4592 18.0163C50.2291 19.3491 52.1343 16.3324 54 16.3324C55.8656 16.3324 57.7709 19.3491 59.5408 18.0163C61.3108 16.6823 59.2405 14.0019 59.6596 12.0941C60.0787 10.1864 63.4679 9.4319 62.9454 7.20825C62.4229 4.98574 58.6531 6.41742 57.442 5.16527C56.2297 3.91312 56.0361 0.369141 54 0.369141Z" fill="#F3BE00"/>
<path fill-rule="evenodd" clip-rule="evenodd" d="M76.5 0.369141C74.4638 0.369141 74.2713 3.91312 73.0591 5.16527C71.8469 6.41742 68.0782 4.98574 67.5546 7.20825C67.0321 9.4319 70.4224 10.1864 70.8404 12.0941C71.2606 14.0019 69.1892 16.6823 70.9592 18.0163C72.7291 19.3491 74.6343 16.3324 76.5 16.3324C78.3656 16.3324 80.2709 19.3491 82.0408 18.0163C83.8108 16.6823 81.7405 14.0019 82.1596 12.0941C82.5787 10.1864 85.9679 9.4319 85.4454 7.20825C84.9229 4.98574 81.1531 6.41742 79.942 5.16527C78.7297 3.91312 78.5361 0.369141 76.5 0.369141Z" fill="#F3BE00"/>
<path fill-rule="evenodd" clip-rule="evenodd" d="M99 0.369141C96.9638 0.369141 96.7713 3.91312 95.5591 5.16527C94.3469 6.41742 90.5782 4.98574 90.0546 7.20825C89.5321 9.4319 92.9224 10.1864 93.3404 12.0941C93.7606 14.0019 91.6892 16.6823 93.4592 18.0163C95.2291 19.3491 97.1343 16.3324 99 16.3324C100.866 16.3324 102.771 19.3491 104.541 18.0163C106.311 16.6823 104.241 14.0019 104.66 12.0941C105.079 10.1864 108.468 9.4319 107.945 7.20825C107.423 4.98574 103.653 6.41742 102.442 5.16527C101.23 3.91312 101.036 0.369141 99 0.369141Z" fill="#ECECEC"/>
</svg>
