<svg width="37" height="37" viewBox="0 0 37 37" fill="none" xmlns="http://www.w3.org/2000/svg">
<path d="M28.1738 8.22104C25.5495 5.83099 21.8967 4.37363 17.7516 4.37363H12.2779V24.2847H18.4726C21.0091 24.2847 22.8721 22.6889 23.7231 20.665C24.3819 19.1056 24.4698 17.273 23.7542 15.7173C22.3377 12.6441 18.7801 12.3035 15.8008 12.3035V7.93504C20.7236 7.93504 25.4854 9.0408 27.7328 13.9047C28.9516 16.548 28.8948 19.6722 27.7748 22.3373C26.2852 25.8696 22.9911 28.6586 18.4726 28.6586H7.88574V-0.000244141H17.7516C23.0222 -0.000244141 27.7071 1.89978 31.1202 5.01305C38.6893 11.9118 38.704 23.4376 31.4569 30.5477C27.7108 34.2239 22.5958 36.1148 17.3673 36.1148H0V7.93686H4.40496C4.40496 15.8685 4.39398 23.8001 4.39398 31.7482H17.3673C21.4868 31.7482 25.4232 30.3491 28.3861 27.4417C33.8433 22.0859 33.8744 13.4274 28.1738 8.22104Z" fill="#219653"/>
</svg>
